<svg viewBox="0 0 50 50" xmlns="http://www.w3.org/2000/svg">
	<defs>
		<linearGradient id="lg" x1="34.766" x2="25.432" y1="9.9084" y2="28.427" gradientTransform="matrix(.51482 0 0 .59277 7.1827 7.2066)" gradientUnits="userSpaceOnUse">
			<stop stop-color="#fff" stop-opacity="0" offset="0"/>
			<stop stop-color="#fff" stop-opacity=".27451" offset="1"/>
		</linearGradient>
	</defs>
	<path d="m25 7.3225c-1.5738 3.8583-2.5295 6.3854-4.2813 10.129 1.0739 1.1385 2.3942 2.4599 4.5359 3.9576-2.3025-0.9474-3.8719-1.8959-5.0453-2.8831-2.2423 4.679-5.7579 11.342-12.887 24.151 5.6016-3.2339 9.9447-5.2292 13.992-5.9905-0.17346-0.74632-0.26572-1.5573-0.25909-2.3997l0.0044-0.17678c0.08894-3.5896 1.9567-6.3501 4.1691-6.1628 2.2119 0.18727 3.9343 3.2504 3.8454 6.8406-0.01713 0.67616-0.09557 1.3258-0.2287 1.9291 4.0034 0.78334 8.3051 2.7693 13.832 5.9601-1.0899-2.0064-2.0661-3.8145-2.9952-5.5375-1.4634-1.1341-2.9892-2.6096-6.1026-4.2078 2.1401 0.55629 3.6736 1.1993 4.8679 1.9164-9.4453-17.586-10.209-19.925-13.448-27.526v-4.97e-5z" fill="#1793d1" style="stroke-width:.55242"/>
	<path d="m34.951 28.336c-7.6632-10.4-9.4392-18.783-9.8895-20.785 4.0879 9.4282 4.0597 9.5442 9.8895 20.785z" fill="#fff" fill-opacity=".16568" style="stroke-width:.55242"/>
	<path d="m25.069 7.4606c-0.19887 0.48861-0.3867 0.96497-0.5701 1.4156-0.20108 0.4942-0.39664 0.97033-0.58667 1.4329-0.19003 0.46254-0.38283 0.90094-0.56955 1.3465-0.18727 0.44553-0.36128 0.88603-0.55242 1.3293-0.19114 0.44304-0.40106 0.89106-0.60435 1.3463-0.20329 0.45575-0.41542 0.91592-0.6386 1.3987-0.22318 0.48226-0.4574 0.99491-0.7082 1.5192-0.0337 0.07071-0.0685 0.15247-0.1033 0.22428 1.0711 1.1347 2.392 2.4456 4.5227 3.936-2.3019-0.9474-3.867-1.8959-5.0408-2.8831-0.06077 0.12485-0.10938 0.23478-0.17236 0.36239-0.23202 0.48116-0.48116 0.95735-0.74246 1.4849-0.06242 0.12374-0.10828 0.23588-0.17236 0.36239-0.27676 0.55463-0.56678 1.1286-0.88056 1.7434-0.06242 0.12153-0.12595 0.22207-0.19003 0.34526-0.18948 0.36847-0.79549 1.5302-1.4153 2.7107-0.36184 0.68942-0.64578 1.254-1.0535 2.0197-0.11546 0.21986-0.353 0.66014-0.41432 0.7767 4.4884-2.5262 9.331-6.196 18.127-3.0554-0.44028-0.83416-0.86288-1.6125-1.2429-2.3478-0.38007-0.73583-0.72478-1.4203-1.0529-2.0716-0.32814-0.65131-0.63142-1.2656-0.91536-1.8473-0.28339-0.5817-0.54634-1.1308-0.79383-1.6573s-0.48889-1.033-0.70765-1.5192c-0.21931-0.48558-0.42316-0.95569-0.62147-1.4153-0.19832-0.46017-0.38393-0.91592-0.5701-1.3639-0.18561-0.44829-0.37123-0.87813-0.55242-1.3293-0.07844-0.19633-0.14529-0.40537-0.22428-0.60424-0.49055-1.1517-0.97171-2.2934-1.5534-3.6598v1.1e-5z" fill="url(#lg)" style="fill:url(#lg);stroke-width:.55242"/>
</svg>
