<svg viewBox="0 0 50 50" xmlns="http://www.w3.org/2000/svg">
	<path fill="#1b1b1f" d="m39.188 13.862-11.885-7.0544a4.4775 4.4775 0 0 0-4.5646 0l-11.885 7.0544a4.7389 4.7389 0 0 0-2.3114 4.0833v14.109a4.7389 4.7389 0 0 0 2.2906 4.0833l11.885 7.0544a4.4775 4.4775 0 0 0 4.5646 0l11.885-7.0544a4.7389 4.7389 0 0 0 2.2906-4.0833v-14.109a4.7389 4.7389 0 0 0-2.2699-4.0833zm-9.204 22.031v1.0125a0.37347 0.37347 0 0 1-0.17429 0.31122l-0.6017 0.34442c-0.09544 0.0498-0.17428 0-0.17428-0.13279v-0.99592a1.9545 1.9545 0 0 1-1.3694 0.13279 0.18259 0.18259 0 0 1-0.0664-0.22408l0.21578-0.91708a0.38177 0.38177 0 0 1 0.12034-0.19918 0.24068 0.24068 0 0 1 0.05809-0.0415 0.12034 0.12034 0 0 1 0.09544 0 1.6599 1.6599 0 0 0 1.2449-0.15769 1.6599 1.6599 0 0 0 0.92953-1.4233c0-0.51456-0.28218-0.73034-0.96272-0.73449-0.86313 0-1.6599-0.16599-1.6806-1.4399a3.6891 3.6891 0 0 1 1.3943-2.8218v-1.025a0.36932 0.36932 0 0 1 0.17429-0.31537l0.58095-0.36932c0.09544-0.0498 0.17429 0 0.17429 0.13694v1.025a1.8922 1.8922 0 0 1 1.137-0.13694 0.18259 0.18259 0 0 1 0.0747 0.23653l-0.20333 0.90878a0.39007 0.39007 0 0 1-0.10374 0.18258 0.24068 0.24068 0 0 1-0.05809 0.04564 0.13694 0.13694 0 0 1-0.08714 0 1.5063 1.5063 0 0 0-1.0955 0.17844 1.3777 1.3777 0 0 0-0.82993 1.22c0 0.46476 0.24483 0.60585 1.0665 0.62245 1.0997 0 1.5727 0.49796 1.5852 1.6018a3.9339 3.9339 0 0 1-1.4441 2.9753zm6.2245-1.7055a0.23653 0.23653 0 0 1-0.09129 0.22823l-3.0044 1.8259a0.087143 0.087143 0 0 1-0.14109-0.087143v-0.77599a0.21578 0.21578 0 0 1 0.13694-0.19088l2.9587-1.7719a0.087143 0.087143 0 0 1 0.14109 0.08714zm2.0748-17.35-11.246 6.9465c-1.4026 0.82993-2.4359 1.7387-2.4359 3.4276v13.852c0 1.0125 0.41497 1.6599 1.0374 1.8591a3.6393 3.6393 0 0 1-0.62245 0.06225 3.6808 3.6808 0 0 1-1.8756-0.51871l-11.885-7.0544a3.909 3.909 0 0 1-1.8839-3.3571v-14.109a3.909 3.909 0 0 1 1.8839-3.3612l11.885-7.0544a3.6642 3.6642 0 0 1 3.7347 0l11.885 7.0544a3.8841 3.8841 0 0 1 1.8259 2.718c-0.38592-0.83823-1.2739-1.0706-2.3072-0.46476z" style="stroke-width:.41497"/>
</svg>
