<svg viewBox="0 0 50 50" xmlns="http://www.w3.org/2000/svg">
	<path d="m41.185 34.344c0.2606-0.45142 0.42255-0.96004 0.42255-1.4168v-15.854c0-0.45674-0.16172-0.96525-0.42244-1.4167l-16.184 9.3439z" fill="#00599c" style="stroke-width:.10854"/>
	<path d="m26.438 43.345 13.73-7.9271c0.39552-0.22837 0.755-0.62269 1.0156-1.0742l-16.184-9.3439-16.184 9.344c0.2606 0.45142 0.6202 0.84585 1.0156 1.0741l13.73 7.9271c0.79093 0.45674 2.0854 0.45674 2.8763 0z" fill="#004482" style="stroke-width:.10854"/>
	<path d="m41.185 15.656c-0.26071-0.45153-0.62031-0.84585-1.0157-1.0742l-13.73-7.9271c-0.79093-0.45674-2.0854-0.45674-2.8763 0l-13.73 7.9271c-0.79104 0.45663-1.4382 1.5776-1.4382 2.491v15.854c0 0.45674 0.16183 0.96536 0.42255 1.4168l16.184-9.3439z" fill="#659ad2" style="stroke-width:.10854"/>
	<g fill="#fff">
		<path d="m25 36.072c-6.1046 0-11.071-4.9665-11.071-11.071s4.9665-11.071 11.071-11.071c3.9391 0 7.6129 2.1198 9.5874 5.5321l-4.7913 2.7725c-0.98826-1.708-2.8262-2.7691-4.7962-2.7691-3.0524 0-5.5355 2.4832-5.5355 5.5355 0 3.0523 2.4832 5.5355 5.5355 5.5355 1.9702 0 3.8081-1.0611 4.7965-2.7694l4.7913 2.7724c-1.9746 3.4126-5.6484 5.5325-9.5878 5.5325z" style="stroke-width:.10854"/>
		<polygon transform="matrix(.10854 0 0 .10854 8.3937 6.3125)" points="232.33 155.18 232.33 166.51 221 166.51 221 177.84 232.33 177.84 232.33 189.18 243.67 189.18 243.67 177.84 255 177.84 255 166.51 243.67 166.51 243.67 155.18"/>
		<polygon transform="matrix(.10854 0 0 .10854 8.3937 6.3125)" points="274.83 155.18 274.83 166.51 263.5 166.51 263.5 177.84 274.83 177.84 274.83 189.18 286.17 189.18 286.17 177.84 297.5 177.84 297.5 166.51 286.17 166.51 286.17 155.18"/>
	</g>
</svg>
