<svg viewBox="0 0 50 50" xmlns="http://www.w3.org/2000/svg">
	<path d="m28.058 26.103c-0.6459 9e-3 0.1222 0.33284 0.96543 0.46259 0.23291-0.18187 0.44426-0.3659 0.6326-0.5449-0.52513 0.12868-1.0596 0.13156-1.598 0.0823" style="fill:#a80030;stroke-width:.35943"/>
	<path d="m31.518 25.243c0.3846-0.53088 0.66495-1.1121 0.7638-1.713-0.0863 0.42844-0.31882 0.7983-0.53771 1.1886-1.2073 0.7602-0.11358-0.45145-7.2e-4 -0.91188-1.2983 1.634-0.17828 0.97981-0.22537 1.4363" style="fill:#a80030;stroke-width:.35943"/>
	<path d="m32.798 21.913c0.078-1.1631-0.22896-0.79543-0.33211-0.35153 0.12041 0.0625 0.21565 0.81987 0.33211 0.35153" style="fill:#a80030;stroke-width:.35943"/>
	<path d="m25.608 6.0125c0.34469 0.0618 0.74474 0.10926 0.68867 0.19157 0.37704-0.0827 0.46259-0.15887-0.68867-0.19157" style="fill:#a80030;stroke-width:.35943"/>
	<path d="m26.298 6.2025-0.2437 0.0503 0.22681-0.0201 0.0169-0.0302" style="fill:#a80030;stroke-width:.35943"/>
	<path d="m37.048 22.353c0.0385 1.0445-0.30551 1.5513-0.6157 2.4484l-0.5582 0.27892c-0.45684 0.88707 0.0442 0.56323-0.28287 1.2688-0.71312 0.63404-2.1641 1.9841-2.6285 2.1074-0.33894-8e-3 0.22968-0.40005 0.30408-0.55389-0.95465 0.65561-0.76595 0.98413-2.226 1.3824l-0.0428-0.0949c-3.6008 1.694-8.6026-1.6631-8.5369-6.2437-0.0385 0.29078-0.10927 0.21818-0.18906 0.33571-0.18583-2.3568 1.0884-4.724 3.2374-5.6905 2.102-1.0406 4.5662-0.61355 6.0719 0.78967-0.82705-1.0833-2.4732-2.2317-4.4242-2.1242-1.9111 0.0302-3.6989 1.2447-4.2956 2.5631-0.9791 0.61642-1.0927 2.3762-1.5193 2.6982-0.57401 4.2186 1.0797 6.0413 3.8772 8.1853 0.4403 0.2969 0.124 0.34182 0.18367 0.56791-0.92949-0.43528-1.7806-1.0923-2.4804-1.8967 0.37129 0.54346 0.77206 1.0718 1.29 1.487-0.87629-0.29689-2.047-2.1235-2.3888-2.1979 1.5107 2.7047 6.129 4.7434 8.5473 3.732-1.1189 0.0413-2.5405 0.023-3.7978-0.44174-0.52801-0.27173-1.2462-0.8346-1.1178-0.93992 3.3003 1.2328 6.7095 0.93381 9.5652-1.3554 0.72641-0.56575 1.52-1.5283 1.7494-1.5416-0.34541 0.51938 0.059 0.24981-0.20631 0.70844 0.72389-1.1674-0.3145-0.47516 0.74834-2.016l0.39249 0.54059c-0.14592-0.96903 1.2034-2.1458 1.0664-3.6784 0.30947-0.46869 0.34541 0.50429 0.0169 1.5826 0.45576-1.1962 0.12005-1.3885 0.23723-2.3755 0.12652 0.33175 0.29257 0.68436 0.37776 1.0344-0.29689-1.1559 0.3048-1.9467 0.4536-2.6185-0.14665-0.065-0.45827 0.51111-0.52944-0.85437 0.0104-0.59306 0.16498-0.3109 0.22464-0.45683-0.11645-0.0669-0.42197-0.52154-0.6078-1.3935 0.13479-0.20488 0.36016 0.53124 0.54347 0.56143-0.1179-0.69334-0.32098-1.2221-0.32924-1.754-0.53556-1.1193-0.18942 0.14916-0.62398-0.48056-0.57006-1.7781 0.47301-0.41263 0.54346-1.2206 0.86408 1.2519 1.3569 3.1921 1.5829 3.9958-0.17253-0.97981-0.45145-1.9291-0.79183-2.8474 0.26239 0.11035-0.42269-2.016 0.3411-0.6078-0.81591-3.002-3.4919-5.807-5.9536-7.1232 0.3012 0.27568 0.68148 0.62181 0.5449 0.67609-1.2242-0.72893-1.0089-0.78572-1.1843-1.0938-0.99742-0.4058-1.0628 0.0327-1.7235 7.1e-4 -1.8798-0.99706-2.2421-0.89103-3.9721-1.5157l0.0787 0.3677c-1.2454-0.41478-1.451 0.15743-2.7971 1e-3 -0.082-0.064 0.43132-0.23148 0.85365-0.29294-1.2041 0.15887-1.1477-0.23722-2.3259 0.0438 0.29042-0.2038 0.59738-0.33858 0.90721-0.51183-0.98197 0.0597-2.3442 0.5715-1.9237 0.10603-1.6016 0.71455-4.4462 1.7177-6.0424 3.2144l-0.0503-0.33535c-0.73144 0.87809-3.1896 2.6224-3.3855 3.7597l-0.19553 0.0456c-0.38064 0.64446-0.62685 1.3748-0.92877 2.038-0.49782 0.84826-0.72965 0.32636-0.65884 0.45935-0.97909 1.9852-1.4654 3.6533-1.8856 5.0213 0.29941 0.4475 7e-3 2.6939 0.12041 4.4918-0.4917 8.8794 6.2318 17.501 13.581 19.491 1.0772 0.38531 2.6792 0.37057 4.0418 0.41011-1.6077-0.45971-1.8155-0.24369-3.3815-0.78967-1.1297-0.53196-1.3773-1.1394-2.1774-1.8338l0.31666 0.55963c-1.5693-0.55532-0.9126-0.68723-2.1893-1.0916l0.33823-0.44174c-0.5086-0.0385-1.3472-0.85725-1.5765-1.3105l-0.5564 0.0219c-0.66854-0.8249-1.0247-1.4194-0.99886-1.8798l-0.17972 0.32025c-0.20379-0.34972-2.4596-3.0936-1.2893-2.4549-0.21745-0.19876-0.50644-0.32348-0.81986-0.89282l0.2383-0.27245c-0.56323-0.72462-1.0366-1.6534-1.0006-1.9629 0.30048 0.4058 0.50895 0.48164 0.71526 0.55101-1.4223-3.5289-1.5021-0.19445-2.5793-3.5922l0.22788-0.0183c-0.17468-0.2631-0.28071-0.54885-0.42125-0.82921l0.0992-0.98844c-1.024-1.184-0.28647-5.0342-0.13874-7.1459 0.10244-0.85868 0.85473-1.7727 1.4269-3.2061l-0.34864-0.06c0.66638-1.1624 3.8049-4.6683 5.2585-4.4879 0.70413-0.88457-0.13982-3e-3 -0.27748-0.22609 1.5466-1.6006 2.0329-1.1308 3.0767-1.4187 1.1257-0.66819-0.96615 0.26058-0.43239-0.25484 1.946-0.49709 1.3791-1.13 3.9178-1.3824 0.26778 0.15239-0.62145 0.23542-0.84466 0.43311 1.6214-0.79327 5.1309-0.61283 7.4104 0.4403 2.6451 1.2361 5.6168 4.8901 5.734 8.328l0.13335 0.0359c-0.0676 1.3666 0.20919 2.947-0.27029 4.3987l0.32636-0.68723" style="fill:#a80030;stroke-width:.35943"/>
	<path d="m21.008 26.993-0.0906 0.45289c0.42449 0.57652 0.76127 1.2012 1.3033 1.6519-0.38999-0.76127-0.67969-1.0758-1.2127-2.1048" style="fill:#a80030;stroke-width:.35943"/>
	<path d="m22.008 26.953c-0.22465-0.24836-0.35764-0.54741-0.50644-0.84538 0.14233 0.52369 0.43383 0.9737 0.7052 1.4313l-0.19876-0.58588" style="fill:#a80030;stroke-width:.35943"/>
	<path d="m39.768 23.093-0.0949 0.23794c-0.17397 1.2357-0.54957 2.4585-1.1254 3.5922 0.63619-1.1962 1.0477-2.5045 1.2203-3.8301" style="fill:#a80030;stroke-width:.35943"/>
	<path d="m25.738 5.7025c0.43671-0.15995 1.0736-0.0877 1.5369-0.19302-0.60385 0.0507-1.2048 0.0809-1.7982 0.15743l0.26131 0.0356" style="fill:#a80030;stroke-width:.35943"/>
	<path d="m10.398 13.863c0.10064 0.93165-0.70089 1.2932 0.17756 0.67897 0.47086-1.0607-0.18403-0.29294-0.17756-0.67897" style="fill:#a80030;stroke-width:.35943"/>
	<path d="m9.3684 18.173c0.20236-0.6211 0.23903-0.99419 0.3163-1.3536-0.55927 0.71491-0.25735 0.8673-0.3163 1.3536" style="fill:#a80030;stroke-width:.35943"/>
</svg>
