<svg viewBox="0 0 50 50" xmlns="http://www.w3.org/2000/svg">
	<path d="m23.609 7.3316c-0.08261 0.0087-0.34782 0.03913-0.58694 0.060868-3.3999 0.35651-6.7477 1.7956-9.478 4.0825-0.50434 0.41738-1.6521 1.5652-2.0695 2.0695-2.2608 2.6999-3.5825 5.7303-4.0695 9.3172-0.10869 0.79563-0.10869 3.4825 0 4.2782 0.48695 3.5869 1.8087 6.6172 4.0695 9.3172 0.41738 0.50434 1.5652 1.6521 2.0695 2.0695 2.6999 2.2608 5.7303 3.5825 9.3172 4.0695 0.79563 0.10869 3.4825 0.10869 4.2782 0 3.5869-0.48694 6.6172-1.8087 9.3172-4.0695 0.50434-0.41738 1.6521-1.5652 2.0695-2.0695 2.2608-2.6999 3.5825-5.7303 4.0695-9.3172 0.10869-0.79563 0.10869-3.4825 0-4.2782-0.48694-3.5869-1.8087-6.6172-4.0695-9.3172-0.41738-0.50434-1.5652-1.6521-2.0695-2.0695-2.6912-2.2521-5.752-3.5912-9.2911-4.0651-0.3826-0.052173-0.93911-0.073911-1.9695-0.082607-0.78694-0.0087-1.5043-0.00435-1.5869 0.00435zm0.21739 1.8782c0 0.50868 0.03478 1.613 0.08261 2.6608 0.02609 0.51303 0.05652 1.2478 0.06956 1.6304 0.04782 1.3565 0.1913 4.9173 0.21304 5.2347l0.02174 0.31738-0.19565-0.02174c-0.10869-0.0087-0.20869-0.03478-0.22608-0.04782-0.01304-0.01739-0.04348-0.31738-0.06087-0.66955-0.07826-1.5478-0.33478-7.552-0.36086-8.4302l-0.02609-0.96519 0.12174-0.017391c0.06522-0.0087 0.17391-0.021739 0.24347-0.026086l0.11739-0.00435zm4.1608-0.10435c0.0043 0.00435 0.01739 1.3174 0.03043 2.9173 0.01739 1.6043 0.03913 3.0434 0.05217 3.1999 0.01304 0.16087 0.0087 0.29999-0.01304 0.30869-0.01739 0.01304-0.12608 0.01304-0.23478 0l-0.2-0.01739-0.03043-1.2652c-0.01739-0.69998-0.03913-1.4739-0.04782-1.726-0.03478-0.76955-0.06522-3.3825-0.03913-3.4477 0.01739-0.047825 0.06522-0.052173 0.24782-0.021739 0.12608 0.026086 0.23043 0.047825 0.23478 0.052173zm-10.056 1.4565c0.02609 0.03913 0.23043 2.4347 0.4826 5.5694 0.08261 1.0652 0.16521 2.0391 0.17826 2.1608 0.02174 0.22173 0.01739 0.23043-0.12174 0.31738-0.07826 0.04782-0.15652 0.08695-0.17391 0.08695-0.01304 0-0.03913-0.11304-0.05217-0.25217-0.06087-0.5652-0.29564-3.2956-0.46086-5.2694-0.09565-1.1608-0.1826-2.1999-0.19565-2.313-0.02174-0.1913-0.01739-0.20869 0.09565-0.26956 0.13913-0.07391 0.21739-0.08696 0.24782-0.03043zm11.969 0.87389c0.12174 0.04348 0.13478 0.06522 0.16087 0.31304 0.04348 0.43477 0.03043 2.513-0.01739 2.513-0.12608 0-0.38695-0.14782-0.40869-0.23043-0.01304-0.05217-0.02609-0.66955-0.02609-1.3695 0-1.413-0.01739-1.3304 0.2913-1.2261zm-8.0302 0.20434c0 0.11739 0.03043 0.7652 0.06522 1.4478 0.03478 0.68259 0.07391 1.5478 0.0913 1.9217 0.03043 0.7565 0.03913 0.73042-0.25217 0.74781-0.14348 0.0043-0.14348 0.0043-0.15217-0.21304-0.0087-0.12174-0.03043-0.49999-0.05652-0.84781-0.02174-0.34782-0.07391-1.1-0.10869-1.6739-0.03478-0.5739-0.07826-1.1435-0.0913-1.2652-0.02609-0.21739-0.02174-0.22608 0.09565-0.26956 0.06956-0.02609 0.1913-0.04783 0.26956-0.04783 0.13913-0.0043 0.13913-0.0043 0.13913 0.2zm12.061 0.59564 0.14782 0.06087 0.03043 0.5826c0.01304 0.31738 0.02174 1.0043 0.01304 1.5217l-0.01304 0.9478-0.1826-0.0913-0.1826-0.08696-0.01304-1.4434c-0.0087-0.79563-0.0043-1.4695 0.0043-1.5 0.01739-0.06522 0.01739-0.06522 0.19565 0.0087zm-7.9389 0.56955c0.02609 0.02609 0.08695 2.1347 0.0913 3.2043l0.0043 0.64346-0.20434-0.03043c-0.11739-0.01304-0.21304-0.02609-0.21739-0.03043-0.01304-0.0087-0.14348-3.2304-0.14348-3.5434v-0.32173l0.22173 0.02609c0.12608 0.01739 0.23478 0.03913 0.24782 0.05217zm10.013 0.30869c0.05217 0.06087 0.06087 1.013 0.07391 6.2651 0.01304 6.0303 0.01304 6.1868-0.06522 6.1868-0.04782 0-0.11304-0.02609-0.15217-0.05652-0.06522-0.04783-0.07391-0.5739-0.09565-5.726-0.01739-3.1217-0.03913-5.9564-0.05217-6.2999l-0.02609-0.62607 0.12608 0.0913c0.07391 0.05217 0.15652 0.12608 0.1913 0.16521zm-3.8999 0.89128c0.02174 0.01739 0.04348 0.26521 0.04782 0.54781 0.02174 0.96085 0.02609 6.852 0.0043 6.8694-0.0087 0.0087-0.08695-0.01304-0.17391-0.04782l-0.15652-0.06521v-7.3955l0.12174 0.02609c0.06522 0.01739 0.13478 0.04348 0.15652 0.06522zm-12 0.24347c0.01304 0.11739 0.03478 0.3826 0.04782 0.59999 0.01304 0.21304 0.04348 0.69998 0.06956 1.0782 0.05217 0.7652 0.04348 0.81302-0.20434 0.81302-0.13043 0-0.14782-0.01304-0.16521-0.14348-0.04348-0.25652-0.19565-2.3956-0.17391-2.4304 0.02174-0.03043 0.24782-0.10869 0.35217-0.11739 0.02609-0.0043 0.06087 0.08695 0.07391 0.2zm-7.1911 1.1087c0.04782 0.46086 0.14348 1.4261 0.21304 2.1434 0.07391 0.71738 0.13478 1.3261 0.13478 1.3521 0 0.05217-0.33478 0.21739-0.36956 0.1826-0.02174-0.02174-0.45651-3.8695-0.45651-4.0434 0-0.10435 0.33478-0.54347 0.37825-0.49564 0.01304 0.0087 0.05652 0.39564 0.1 0.86085zm17.047 0.45651 0.12608 0.07391 0.0043 0.93911c0.0043 0.51303 0.01304 1.0869 0.01304 1.2739 0.0087 0.3913-0.03913 0.45651-0.27391 0.3739l-0.13478-0.04782v-0.3739c0-0.20869-0.01304-0.81302-0.03043-1.3478l-0.02609-0.9652h0.1c0.05217 0 0.15217 0.03478 0.22173 0.07391zm-15.139 1.6869c0.07826 0.83476 0.20434 2.2434 0.28695 3.1304l0.14782 1.6087-0.16956 0.16956-0.16521 0.16956-0.03043-0.34347c-0.01739-0.1913-0.10434-1.0782-0.19565-1.9739-0.0913-0.89563-0.22173-2.1956-0.28695-2.8869l-0.12174-1.2521 0.16956-0.15652c0.15217-0.14348 0.16956-0.14782 0.2-0.06956 0.01739 0.04348 0.0913 0.7652 0.16521 1.6043zm-3.2564 0.52608c0.09565 0.8565 0.34782 3.1347 0.5652 5.0608 0.21739 1.926 0.42173 3.7825 0.46086 4.1303 0.03478 0.34782 0.09565 0.87389 0.13043 1.1739 0.06087 0.50868 0.06087 0.54346-0.0087 0.59564-0.10434 0.07826-0.14782 0.06956-0.14782-0.02174 0-0.03913-0.03913-0.36956-0.08695-0.72607-0.07826-0.59564-0.20869-1.6043-0.49999-3.8695-0.06087-0.45651-0.17826-1.3652-0.26086-2.0217-0.08695-0.65651-0.21304-1.6347-0.2826-2.1739-0.06956-0.53912-0.18695-1.4608-0.26086-2.0565-0.07826-0.59129-0.12608-1.1174-0.11304-1.1739 0.03043-0.11739 0.28695-0.52608 0.31304-0.49999 0.0087 0.01304 0.09565 0.72172 0.1913 1.5826zm-1.3304 1.8739c0.06522 0.52173 0.18695 1.4739 0.26956 2.1217 0.08261 0.64346 0.18695 1.4478 0.23478 1.7826l0.08261 0.60868-0.0913 0.07826c-0.05217 0.04348-0.10434 0.06087-0.12174 0.04348-0.01739-0.01739-0.05217-0.1913-0.07826-0.3826s-0.18695-1.3087-0.36086-2.4782l-0.30869-2.1304 0.099998-0.29565c0.052173-0.16086 0.10869-0.2913 0.12174-0.2913 0.01739 0 0.08261 0.42608 0.15217 0.94346zm23.869-0.56955c0.06087 0.06087 0.06956 0.33043 0.06956 2.326v2.2565h-0.12173c-0.26521 0-0.26086 0.06522-0.27826-2.4043l-0.01304-2.2478h0.13913c0.07391 0 0.16956 0.03043 0.20434 0.06956zm-9.5172 0.77824c0.98258 0.14782 1.8391 0.42173 2.6869 0.8565 0.54781 0.2826 0.80868 0.47825 1.4174 1.0608 0.90433 0.8652 1.4608 1.6217 1.9826 2.6912 0.76085 1.5565 1.0565 2.9347 1.4304 6.6303 0.16956 1.6565 0.3913 4.6608 0.43912 5.8912 0.01304 0.35651 0.04348 0.94346 0.06956 1.3043 0.04783 0.7652 0.10434 0.66085-0.56955 0.98693-0.93476 0.45216-1.8347 0.7652-3.0217 1.0565-1.4521 0.35651-2.3912 0.46955-3.826 0.4739l-1.0435 0.0043 0.0087-0.49999c0-0.27391 0.02609-0.91302 0.05217-1.413 0.13043-2.4217 0.10435-5.4781-0.06522-7.1737-0.09565-0.97389-0.2826-2.1565-0.38695-2.4173-0.02174-0.05652 0.07826-0.10435 0.50868-0.25217 0.78694-0.27391 1.4695-0.61738 1.5739-0.78694 0.18695-0.32173-0.14782-0.78259-0.5739-0.78259-0.07391 0-0.29564 0.07826-0.49999 0.16956-0.97389 0.44782-2.926 0.97389-4.0521 1.0913-0.77824 0.08261-1.9869 0.03478-2.826-0.11739-0.45651-0.08261-1.2739-0.3913-1.9565-0.74346-0.78694-0.40869-1.2695-0.95215-1.413-1.5956-0.07826-0.34782-0.05652-1.0435 0.04348-1.4347 0.10869-0.43042 0.41303-1.0565 0.69129-1.4217 1.2391-1.6304 3.7956-3.0434 6.4172-3.539 0.83476-0.15652 2.0173-0.17391 2.913-0.03913zm13.413 0.13478c0.15652 0.06522 0.17391 0.08261 0.17391 0.23043 0.0087 1.1869-0.01739 3.8999-0.03913 4.0129-0.0043 0.03913-0.23043 0.04348-0.32608 0.0087-0.06087-0.02174-0.06956-0.25652-0.06956-2.1739 0-1.3739 0.01739-2.1478 0.04348-2.1478 0.02174 0 0.12174 0.03043 0.21739 0.06956zm1.9 2.3869 0.15652 0.06522-0.03044 3.5999c-0.03478 4.5868-0.03913 4.7216-0.20434 5.1173-0.26956 0.64781-0.25652 0.77824-0.23043-2.0652 0.0087-1.4217 0.03043-2.8608 0.03913-3.1956s0.01739-1.2782 0.02174-2.1c0-0.99128 0.01304-1.4869 0.04348-1.4869 0.02609 0 0.11739 0.03043 0.20434 0.06522zm-26.147 1.0826c0.02609 0.35217 0.01739 0.38695-0.10869 0.6652l-0.13913 0.29564-0.05217-0.43477c-0.08261-0.69564-0.08261-0.72607 0.08261-0.83042 0.07391-0.05217 0.15217-0.08695 0.16521-0.07826 0.01304 0.0087 0.03913 0.1826 0.05217 0.3826zm-2.6869 2.6217c0.03913 0.35651 0.34347 2.7217 0.49999 3.8825 0.23478 1.7956 0.25217 2.0521 0.14782 1.9434-0.01304-0.01304-0.11304-0.61738-0.21739-1.3434-0.67824-4.6868-0.6739-4.6564-0.61738-4.6912 0.11739-0.07826 0.15652-0.03478 0.18695 0.20869zm3.1304 1.9913c0.02609 0.10869 0.15217 1.2869 0.15217 1.4304 0 0.12174-0.15652 0.23478-0.22608 0.16521-0.02174-0.02174-0.07826-0.3913-0.12174-0.81737-0.04782-0.43042-0.09565-0.87824-0.10869-0.99563l-0.02609-0.21739 0.15217 0.17391c0.08695 0.09565 0.16521 0.21304 0.17826 0.26086zm3.5086 1.6391c0.04782 0.04348 0.07826 0.21739 0.11739 0.68694 0.06522 0.84781 0.07391 0.78259-0.10434 0.78259-0.1826 0-0.17826 0.01304-0.23912-0.75216-0.06087-0.77824-0.06087-0.76955 0.05652-0.76955 0.05652 0 0.13043 0.02609 0.16956 0.05217zm3.4434 0.06522c0.0087 0.04348 0.03043 0.30434 0.04782 0.57825 0.01304 0.27391 0.05217 0.89128 0.08695 1.3695 0.12174 1.7565 0.12608 1.9782 0.05217 1.9782-0.08261 0-0.0913-0.06522-0.18695-1.3043-0.03478-0.51303-0.1-1.3217-0.14348-1.7956-0.03913-0.4739-0.06522-0.86954-0.05217-0.87824 0.04782-0.05217 0.17391-0.01304 0.19565 0.05217zm-8.1737 0.83476c0.02609 0.03913 0.1913 1.4304 0.39564 3.3304 0.06087 0.5739 0.12174 1.1261 0.13478 1.2304l0.02174 0.18695-0.10869-0.06956c-0.08261-0.05652-0.11304-0.11304-0.11304-0.21304 0-0.27391-0.18695-2.0782-0.33043-3.1825-0.08261-0.62607-0.14782-1.1782-0.14782-1.2304 0-0.0913 0.10435-0.12608 0.14782-0.05217zm25.091 1.8173-0.03043 1.8173-0.10869 0.16087c-0.24782 0.36521-0.23478 0.43477-0.22173-1.6l0.0087-1.8652 0.16087-0.16521c0.08695-0.08695 0.17391-0.16086 0.1913-0.16086 0.01304 0 0.01304 0.81737 0 1.813zm-4.0216 2.8825c0.02174 2.526 0.01739 2.7217-0.05217 2.7999-0.04348 0.04783-0.08261 0.07826-0.09565 0.06522-0.03043-0.03478-0.07391-5.5433-0.03913-5.5738 0.01739-0.01739 0.06087-0.02609 0.1-0.02174 0.05652 0.01304 0.06956 0.32173 0.08695 2.7304zm-14.2-1.7304c0.03043 0.26956 0.13913 1.5608 0.1826 2.1695 0.02609 0.40869 0.02609 0.42173-0.06956 0.45216-0.05217 0.01739-0.11304 0.01304-0.13043-0.0087-0.03043-0.03043-0.12608-0.99563-0.24347-2.4826l-0.030437-0.35651h0.13478c0.12608 0 0.13478 0.0087 0.15652 0.22608zm-3.4173 1.5217c0.03043 0.03043 0.05217 0.13913 0.05217 0.24782 0 0.11304 0.05217 0.69998 0.10869 1.3087 0.16521 1.6652 0.17826 1.8913 0.10435 1.8478-0.11304-0.06522-0.21304-0.16521-0.1913-0.1913 0.0087-0.01739-0.0087-0.23478-0.04348-0.4826-0.03043-0.25217-0.06956-0.66086-0.08696-0.91302-0.01739-0.25217-0.05652-0.71303-0.0913-1.0217-0.08261-0.76085-0.07826-0.84781 0.01739-0.84781 0.04348 0 0.1 0.02174 0.13043 0.05217zm2.0565 2.926c0.01304 0.09565 0.03913 0.45216 0.05652 0.79129 0.03043 0.65216 0.01739 0.69998-0.16086 0.5652-0.05217-0.03913-0.08695-0.20434-0.13913-0.69998-0.0913-0.89563-0.09565-0.86085 0.07391-0.84346 0.12608 0.01304 0.14348 0.03043 0.16956 0.18695z" style="fill:#222;stroke-width:.043477"/>
	<path d="m16.931 22.192c-0.45216 0.19565-0.48694 0.80868-0.06087 1.0261 0.30869 0.15652 0.62172 0.08261 0.78259-0.18695 0.30434-0.49564-0.1913-1.0695-0.72172-0.83911zm2.9478 0.41738c-0.41738 0.25652-0.41738 0.87389 0 1.1304 0.41303 0.24782 0.9478-0.07826 0.9478-0.5739 0-0.47825-0.54781-0.79998-0.9478-0.55651z" style="fill:#222;stroke-width:.043477"/>
</svg>
