<svg  viewBox="0 0 50 50" xmlns="http://www.w3.org/2000/svg">
	<path d="m11.48 39.949-3.0045-33.709h33.05l-3.0045 33.709-13.557 3.8106" fill="#e34f26" style="stroke-width:.073281"/>
	<path d="m25.037 40.829 10.919-3.0045 2.5648-28.873h-13.484" fill="#ef652a" style="stroke-width:.073281"/>
	<path d="m25.037 21.482h-5.4961l-0.36641-4.2503h5.8625v-4.1038h-10.406l0.07328 1.0992 1.0259 11.432h9.3067zm0 10.772h-0.07328l-4.6167-1.2458-0.29312-3.2977h-4.1038l0.51297 6.522 8.5006 2.345h0.07328z" fill="#ebebeb" style="stroke-width:.073281"/>
	<path d="m24.963 21.482v4.177h5.1297l-0.51297 5.3495-4.6167 1.2458v4.3236l8.5006-2.345 0.07328-0.73281 0.95266-10.919 0.14656-1.0992h-1.1725zm0-8.3541v4.1038h10.04l0.07328-0.87938 0.21984-2.1252 0.07328-1.0992z" fill="#fff" style="stroke-width:.073281"/>
</svg>
