<svg viewBox="0 0 50 50" xmlns="http://www.w3.org/2000/svg">
	<rect id="background" x="7.3225" y="7.3225" width="35.355" height="35.355" fill="#f7df1e" style="stroke-width:.056119"/>
	<path id="j" d="m16.619 36.868 2.7056-1.6374c0.52198 0.92547 0.99682 1.7085 2.1358 1.7085 1.0917 0 1.78-0.42705 1.78-2.0882v-11.297h3.3225v11.344c0 3.4412-2.0171 5.0076-4.9601 5.0076-2.6579 0-4.2006-1.3765-4.9838-3.0377" style="stroke-width:.056119"/>
	<path id="s" d="m28.367 36.512 2.7053-1.5664c0.71215 1.163 1.6377 2.0173 3.2752 2.0173 1.3767 0 2.2545-0.68829 2.2545-1.6376 0-1.1391-0.90176-1.5426-2.4207-2.207l-0.83042-0.35622c-2.3971-1.0203-3.9873-2.3019-3.9873-5.0074 0-2.4919 1.8986-4.3906 4.8652-4.3906 2.1122 0 3.631 0.73579 4.7226 2.6582l-2.5869 1.6612c-0.5696-1.0204-1.1865-1.4238-2.1358-1.4238-0.97303 0-1.5901 0.61703-1.5901 1.4238 0 0.99681 0.61709 1.4003 2.0409 2.0174l0.83057 0.35593c2.8242 1.2104 4.4143 2.4444 4.4143 5.221 0 2.9904-2.3495 4.6279-5.5058 4.6279-3.0852 0-5.0788-1.4713-6.0517-3.3937" style="stroke-width:.056119"/>
</svg>
