<svg viewBox="0 0 50 50" xmlns="http://www.w3.org/2000/svg">
	<path d="m26.301 14.874s-3.2951-0.21925-8.9063 1.5365c-5.7183 1.7893-8.9615 4.3254-8.9615 4.3254s8.5229-4.7587 18.143-5.0291zm12.29 5.174 0.42837-0.02796s-2.4543-2.9778-7.1519-4.4283c2.6407 1.0734 4.9391 2.4957 6.7234 4.456zm0.70106 1.2372c0.06586-0.11419 0.27847 0.36278 0.43993 0.56315 0.0068 0.04001 0.0182 0.06443-0.07542 0.04517-0.0079-0.04113-0.02146-0.05306-0.02146-0.05306s-0.22596-0.13445-0.29524-0.22982c-0.06933-0.09537-0.08164-0.26218-0.04784-0.32544zm5.7651 14.175s0.52101-5.9816-8.8769-7.3607c-1.1911-0.17477-2.6975-0.30928-4.2211-0.31313-7.5324 0.09959-7.8069-8.6875-2.131-9.1312 2.3523-0.19409 5.1611 1.0748 7.907 2.3536-0.01019 0.34103 0.0039 0.64408 0.22795 0.92412 0.22398 0.27995 1.0844 0.58538 1.3593 0.74314 0.27492 0.15781 1.1557 0.71778 1.6954 1.4203 0.11705-0.21894 1.0945-0.8552 1.0945-0.8552s-0.23416 0.0051-0.77892-0.1985c-0.54482-0.2036-1.1913-0.81961-1.2066-0.8552-0.01526-0.03566-0.02542-0.09164 0.10189-0.11711 0.09667-0.08139-0.12227-0.34613-0.21901-0.4428-0.09667-0.09673-0.7433-1.1962-0.75853-1.2217-0.01526-0.02547-0.02039-0.05089-0.06617-0.08145-0.14259-0.04585-0.76879 0.06617-0.76879 0.06617s-0.96307-0.473-1.295-1.4928c0.0048 0.17862-0.16514 0.37365 0 0.78402-0.50214-0.21242-0.93345-0.5747-1.2736-1.47-0.20248 0.5092 0 0.83297 0 0.83297s-1.1824-0.33041-1.3716-1.4209c-0.20764 0.48952 0 0.78395 0 0.78395s-1.9277-1.0058-5.1307-1.0204c-2.1444-0.1967-2.5909-3.9691-2.3922-4.6041 0 0-3.0931-1.6302-9.1818-2.3503-6.0887-0.72026-11.082-0.10854-11.082-0.10854s10.784-0.51753 19.423 2.98c0.29369 1.3135 1.1772 3.5013 1.653 4.5528-1.3616 0.94138-2.8969 1.8266-3.136 4.9662-0.23901 3.1395 2.4602 5.9009 5.8074 5.9861 3.1783 0.1693 5.3744 0.19335 8.036 1.5733 2.5407 1.4048 4.6238 5.6854 4.83 9.5352 0.22267-2.8564-0.84926-8.9989-5.8513-10.864 6.9912 1.2235 7.6062 6.4062 7.6062 6.4062zm-18.921-21.055-0.25156-0.81141s-4.1508-0.7371-9.7317-0.34042c-5.5809 0.39669-11.216 2.3503-11.216 2.3503s11.53-2.9011 21.199-1.1985" fill="currentcolor" style="fill:#527d97;stroke-width:.32267"/>
</svg>
