<svg viewBox="0 0 50 50" xmlns="http://www.w3.org/2000/svg">
	<path d="m39.766 36.138c-4.49e-4 -4.5e-4 -9.43e-4 -9.44e-4 -9.43e-4 -0.0013-0.27274-0.30784-0.40266-0.87858-0.54238-1.4866-0.13936-0.60759-0.29526-1.2628-0.79409-1.6875-9.44e-4 -9.44e-4 -0.0023-0.0018-0.0031-0.0027-0.09887-0.08628-0.20043-0.15904-0.30245-0.21976-0.10242-0.06067-0.20628-0.1101-0.31004-0.1492 0.69343-2.0565 0.42154-4.1043-0.27863-5.9546-0.8588-2.2713-2.3585-4.2499-3.504-5.6035-1.2821-1.6174-2.536-3.1525-2.5113-5.4202 0.03815-3.4608 0.3806-9.8787-5.7097-9.8873-0.24762-4.494e-4 -0.50602 0.00989-0.77522 0.031458-6.8057 0.54782-5.0005 7.7382-5.1016 10.146-0.12448 1.7608-0.48131 3.1485-1.6924 4.8697-1.4224 1.6915-3.4258 4.4297-4.3745 7.2803-0.4476 1.3451-0.66062 2.7161-0.46423 4.014-0.06157 0.05528-0.11999 0.11329-0.17616 0.17261-0.41749 0.44626-0.72623 0.98639-1.07 1.35-0.32132 0.32092-0.77881 0.4427-1.2821 0.62287-0.50333 0.1807-1.0556 0.4467-1.3909 1.0902 0 0 0 4.95e-4 -4.494e-4 4.95e-4 -4.494e-4 8.99e-4 -8.988e-4 0.0022-0.0018 0.0031-0.15774 0.29436-0.20897 0.61208-0.20897 0.9343 0 0.29795 0.044041 0.6 0.088532 0.89071 0.092576 0.60489 0.1865 1.1769 0.062017 1.5644-0.39817 1.0889-0.4494 1.8416-0.16897 2.3882 0.28132 0.54737 0.8588 0.7887 1.5118 0.92532 1.306 0.27234 3.0744 0.20493 4.4679 0.94374l0.11999-0.22605-0.11864 0.2265c1.492 0.78016 3.0047 1.057 4.2113 0.78151 0.87543-0.19949 1.5855-0.72079 1.9504-1.5226 0.94374-0.0045 1.9796-0.40446 3.6388-0.49564 1.1257-0.09082 2.5319 0.39992 4.1493 0.31004 0.04224 0.17527 0.10341 0.34424 0.18695 0.50468 9.44e-4 0.0013 0.0018 0.0031 0.0027 0.0045 0.62687 1.2538 1.7917 1.8273 3.0335 1.7293 1.243-0.09801 2.5647-0.83094 3.6334-2.1023l-0.19594-0.16448 0.19733 0.16268c1.0183-1.235 2.7085-1.7468 3.8298-2.4227 0.5604-0.33795 1.0147-0.76124 1.0502-1.3761 0.03496-0.61433-0.32591-1.3028-1.1555-2.2236z" style="fill:#202020;stroke-width:.04494"/>
	<g fill="#D6A312">
		<path d="m40.41 38.332c-0.02157 0.37925-0.29616 0.66107-0.80353 0.96666-1.0139 0.61164-2.811 1.1437-3.9583 2.5337-0.99682 1.186-2.212 1.8372-3.282 1.9216-1.07 0.08449-1.9931-0.35952-2.5378-1.452l-9.43e-4 -0.0022-0.0013-0.0027c-0.33799-0.64264-0.19733-1.656 0.08714-2.7256 0.28447-1.0691 0.69343-2.1675 0.74825-3.0595v-0.0027c0.05748-1.1432 0.12179-2.1418 0.31364-2.9126 0.19234-0.77072 0.49479-1.292 1.0305-1.5855 0.02517-0.01348 0.04984-0.02652 0.07456-0.03865 0.06071 0.99003 0.55101 2.0003 1.4174 2.2187 0.94828 0.24991 2.3149-0.56355 2.8919-1.2273 0.11545-0.0045 0.2278-0.01034 0.33705-0.01303 0.50647-0.01218 0.93071 0.01708 1.3648 0.39637l0.0013 0.0013 0.0013 9.43e-4c0.33346 0.28267 0.49209 0.81656 0.62961 1.4143 0.13756 0.5982 0.24717 1.2493 0.65976 1.7136l4.5e-4 4.49e-4 4.49e-4 9.44e-4c0.79279 0.87948 1.0476 1.4736 1.0256 1.8533z" style="fill:#f8bf11;stroke-width:.04494"/>
		<path d="m21.142 41.136-4.49e-4 0.0027v0.0031c-0.09168 1.2017-0.76937 1.856-1.8102 2.0938-1.0399 0.23773-2.4506 9.43e-4 -3.859-0.73567-4.5e-4 0-8.99e-4 -4.5e-4 -0.0013-4.5e-4 -1.5586-0.82551-3.4123-0.74327-4.6019-0.99178-0.59456-0.12404-0.98284-0.31099-1.1608-0.65792-0.17796-0.34739-0.18201-0.95273 0.19639-1.985l0.0018-0.0045 0.00135-0.0045c0.1874-0.57748 0.048535-1.2093-0.042244-1.8025-0.090779-0.59272-0.13527-1.1324 0.06741-1.5082l0.0018-0.0036c0.2593-0.49973 0.6395-0.6786 1.1114-0.84757 0.47232-0.16942 1.0318-0.3024 1.4736-0.74556l0.0027-0.0022 0.0022-0.0022c0.4085-0.43098 0.71545-0.9716 1.0745-1.3549 0.3029-0.32357 0.60624-0.53793 1.0633-0.54108 0.0054 4.94e-4 0.01034 4.94e-4 0.01573 0 0.07999 4.94e-4 0.16493 0.0072 0.25481 0.02117 0.60669 0.09168 1.1356 0.51587 1.6453 1.207l1.4713 2.6816 4.5e-4 0.0013 8.99e-4 8.99e-4c0.39143 0.81746 1.2183 1.7167 1.9189 2.6339 0.70062 0.91682 1.2426 1.8376 1.172 2.5423z" style="fill:#f8bf11;stroke-width:.04494"/>
		<path d="m28.48 16.137c-0.11819-0.23144-0.35952-0.45165-0.77027-0.62017l-8.99e-4 -4.49e-4 -0.0013-4.5e-4c-0.85431-0.36581-1.2251-0.39188-1.7019-0.70196-0.77612-0.49884-1.4174-0.67365-1.9504-0.6714-0.27908 8.99e-4 -0.5285 0.05033-0.75185 0.12763-0.64938 0.22335-1.0804 0.68938-1.3504 0.94509l-4.49e-4 4.5e-4c0 4.49e-4 -4.49e-4 4.49e-4 -4.49e-4 8.98e-4 -0.05303 0.05033-0.12134 0.09617-0.28672 0.21751-0.16673 0.12179-0.4166 0.30514-0.77612 0.57478-0.31952 0.23953-0.42334 0.55142-0.31278 0.91678 0.1101 0.36536 0.46243 0.7869 1.1069 1.1514l8.99e-4 8.99e-4 0.0013 4.5e-4c0.39997 0.23504 0.6732 0.55186 0.98688 0.80398 0.15684 0.12583 0.32177 0.23818 0.52041 0.32312 0.19864 0.08494 0.43053 0.14246 0.72084 0.15954 0.68129 0.03955 1.1828-0.16493 1.6255-0.41839 0.44356-0.25301 0.81921-0.56265 1.2502-0.70241l8.99e-4 -4.5e-4 9.43e-4 -4.49e-4c0.88348-0.27593 1.5136-0.83184 1.7108-1.3599 0.09887-0.26425 0.09572-0.51501-0.02202-0.74646z" style="fill:#f8bf11;stroke-width:.04494"/>
	</g>
	<path d="m26.238 17.441c-0.7029 0.36638-1.5239 0.81072-2.3976 0.81072-0.87319 0-1.563-0.40356-2.0592-0.79679-0.24807-0.19639-0.4494-0.39188-0.6013-0.53389-0.26354-0.20803-0.23198-0.49981-0.1237-0.4912 0.1815 0.02266 0.20894 0.26163 0.32323 0.36851 0.15459 0.14471 0.34829 0.33211 0.58287 0.51816 0.46918 0.37166 1.0947 0.73342 1.878 0.73342 0.78196 0 1.6948-0.45907 2.2519-0.77162 0.31567-0.17707 0.71734-0.49448 1.0452-0.7351 0.2508-0.1841 0.24165-0.40577 0.44873-0.38164 0.20708 0.02414 0.05389 0.24537-0.2361 0.49845-0.29 0.25309-0.74368 0.58889-1.1122 0.78097z" style="fill:#202020;stroke-width:.04494"/>
	<path d="m37.001 32.441c-0.09752-0.0036-0.19369-0.0031-0.28717-8.98e-4 -0.0085 4.49e-4 -0.01708 4.49e-4 -0.02607 4.49e-4 0.24133-0.76218-0.29256-1.3244-1.7154-1.9679-1.4754-0.64889-2.651-0.58467-2.8496 0.73207-0.01258 0.06876-0.02292 0.13931-0.03056 0.21032-0.11055 0.03865-0.22111 0.08718-0.33256 0.14785-0.69253 0.3793-1.0709 1.0669-1.2812 1.9109-0.20987 0.84308-0.27054 1.8619-0.32806 3.0074v8.98e-4c-0.0355 0.57573-0.27279 1.3549-0.51277 2.1801-2.4169 1.7243-5.7712 2.4712-8.6195 0.5271-0.19279-0.30514-0.41435-0.60759-0.64219-0.90599-0.1456-0.1905-0.29526-0.37974-0.44356-0.56665 0.29211 4.5e-4 0.54063-0.04768 0.74151-0.13842 0.24987-0.1137 0.42513-0.29526 0.51232-0.52899 0.17347-0.46693-8.99e-4 -1.1257-0.55681-1.8785-0.55591-0.7523-1.4974-1.6012-2.8807-2.4497v-4.49e-4c-1.0165-0.63231-1.5846-1.4071-1.8506-2.2484-0.2665-0.84173-0.2292-1.7518-0.02382-2.6501 0.39368-1.7244 1.4048-3.4015 2.0502-4.454 0.17347-0.12763 0.06202 0.23728-0.65343 1.5657-0.64084 1.2143-1.8394 4.0167-0.19864 6.2045 0.04404-1.5568 0.4157-3.1445 1.0399-4.6298 0.90914-2.0605 2.8106-5.6346 2.9616-8.4829 0.0782 0.05662 0.34559 0.23728 0.46468 0.30514 4.5e-4 4.49e-4 4.5e-4 4.49e-4 8.99e-4 4.49e-4 0.34874 0.20538 0.61074 0.50558 0.95003 0.77836 0.3402 0.27324 0.76488 0.50917 1.4066 0.54647 0.06157 0.0036 0.12179 0.0054 0.18066 0.0054 0.66152 0 1.1774-0.21571 1.6071-0.46154 0.46697-0.26694 0.83993-0.56265 1.1937-0.6777 4.49e-4 -4.5e-4 8.99e-4 -4.5e-4 0.0013-4.5e-4 0.74735-0.23369 1.341-0.64714 1.6789-1.1289 0.58063 2.2883 1.9306 5.5937 2.7985 7.2066 0.46154 0.85566 1.3792 2.6739 1.7756 4.8648 0.25122-0.0077 0.52805 0.02876 0.8242 0.10467 1.0368-2.6879-0.87903-5.5825-1.7554-6.3887-0.35368-0.34334-0.37076-0.49704-0.19504-0.48985 0.95003 0.84083 2.198 2.531 2.6519 4.4392 0.20713 0.87 0.25122 1.785 0.02917 2.6879 0.10831 0.04494 0.21886 0.09392 0.33076 0.147 1.6641 0.81022 2.2794 1.5149 1.9837 2.4766z" fill="#fff" style="stroke-width:.04494"/>
	<path d="m25.142 25.175a7.662 11.34 0 0 0-7.1121 7.1907l0.16852 0.10489v0.0095c1.2975 0.82386 2.2216 1.6504 2.7927 2.4233v9e-5h9e-5c0.60367 0.81742 0.8723 1.6136 0.61652 2.302l-9e-5 2.7e-4 -9e-5 2.69e-4c-0.12949 0.34716-0.40537 0.62537-0.74722 0.78092l-6.15e-4 2.69e-4 -5.26e-4 2.7e-4c-0.03593 0.01623-0.07431 0.02823-0.11156 0.04213 0.20448 0.26825 0.40476 0.54462 0.58931 0.8285 2.606 1.7344 5.6375 1.0927 7.9126-0.47644 0.2222-0.76567 0.42456-1.4797 0.45238-1.926 0.0576-1.1469 0.11546-2.1857 0.34074-3.0907v-9e-5c0.22705-0.91116 0.66872-1.7404 1.5015-2.1964l4.49e-4 -2.69e-4 5.26e-4 -2.7e-4c0.0468-0.02548 0.09379-0.04035 0.1407-0.06249 0.01502-0.0901 0.03586-0.17685 0.06118-0.26051a7.662 11.34 0 0 0-6.605-5.6698zm6.539 5.9485-0.0024 0.01387c2.25e-4 -0.0016 8.27e-4 -3e-3 0.0011-0.0046 5.49e-4 -3e-3 7.6e-4 -0.0063 0.0013-0.0093z" style="color-rendering:auto;color:#000000;enable-background:accumulate;fill:#e6e6e6;image-rendering:auto;isolation:auto;mix-blend-mode:normal;shape-rendering:auto;solid-color:#000000"/>
	<path d="m28.558 13.501c0.0036 0.45345-0.0746 0.83948-0.24672 1.2336-0.09797 0.2247-0.21072 0.41345-0.34599 0.57703-0.04588-0.02202-0.09348-0.04314-0.14296-0.06337-0.17122-0.07325-0.32267-0.13347-0.45834-0.1847-0.13576-0.05123-0.24168-0.08624-0.35093-0.12399 0.07914-0.09572 0.23504-0.20852 0.29306-0.35008 0.08808-0.21346 0.13122-0.42199 0.13931-0.67051 0-0.0099 0.0031-0.01843 0.0031-0.03011 0.0049-0.23818-0.02651-0.44176-0.09617-0.65028-0.0728-0.21886-0.16542-0.37615-0.2993-0.50692-0.13437-0.13078-0.26829-0.1901-0.42918-0.19549-0.0076-4.5e-4 -0.01483-4.5e-4 -0.02247-4.5e-4 -0.151 4.5e-4 -0.28222 0.05258-0.41799 0.16583-0.14246 0.11909-0.24807 0.27144-0.33611 0.48356-0.08763 0.21212-0.13078 0.42244-0.13936 0.6723-0.0013 0.0099-0.0013 0.01843-0.0013 0.02831-0.0031 0.13752 0.0058 0.26335 0.02696 0.38559-0.30919-0.15414-0.70475-0.26654-0.97799-0.3317-0.01573-0.11819-0.02472-0.23998-0.02741-0.36761v-0.0346c-0.0049-0.4521 0.06921-0.83993 0.24313-1.2336 0.17392-0.39412 0.38918-0.67725 0.69203-0.90779 0.30334-0.23009 0.60134-0.3357 0.95408-0.3393h0.01663c0.34514 0 0.6404 0.10156 0.94374 0.32132 0.30784 0.2238 0.52984 0.50333 0.7087 0.89431 0.17527 0.38109 0.25975 0.75364 0.26834 1.1954-4.4e-5 0.01169-4.4e-5 0.02157 0.0031 0.03326z" style="fill:#fff;stroke-width:.04494"/>
	<path d="m23.341 13.953c-0.04539 0.01303-0.08943 0.02696-0.13302 0.04179-0.24717 0.08539-0.44342 0.17962-0.63306 0.305 0.01843-0.13122 0.02112-0.26425 0.0067-0.413-0.0013-0.0081-0.0013-0.01483-0.0013-0.02292-0.01977-0.19729-0.06157-0.36267-0.13122-0.52984-0.07415-0.17392-0.15729-0.2966-0.26649-0.39098-0.09887-0.08539-0.19234-0.12493-0.29571-0.12403-0.01034 0-0.02112 4.49e-4 -0.03191 0.0013-0.11595 0.0099-0.21212 0.06651-0.30335 0.17751-0.09078 0.11055-0.15055 0.24807-0.19369 0.43053-0.04314 0.18201-0.05438 0.36087-0.0364 0.56624 0 0.0081 0.0018 0.01483 0.0018 0.02292 0.01977 0.19908 0.05977 0.36446 0.13078 0.53164 0.0728 0.17212 0.15729 0.29481 0.2665 0.38918 0.01842 0.01573 0.0364 0.03011 0.05438 0.04269-0.11325 0.08763-0.18934 0.14979-0.28281 0.2181-0.05977 0.04359-0.13078 0.09572-0.21346 0.15684-0.18021-0.16897-0.32087-0.38109-0.44401-0.66107-0.14561-0.33076-0.22335-0.66197-0.24672-1.0529v-0.0031c-0.02157-0.39098 0.01663-0.72713 0.12403-1.075 0.10786-0.34784 0.25166-0.5995 0.46064-0.80622 0.20852-0.20717 0.41884-0.31144 0.6723-0.32447 0.01977-8.99e-4 0.0391-0.0013 0.05842-0.0013 0.22964 4.5e-4 0.43457 0.07685 0.64669 0.24627 0.23009 0.1838 0.40401 0.41884 0.54962 0.75005 0.14606 0.33121 0.2238 0.66242 0.24537 1.0534v0.0031c0.01034 0.16403 9e-3 0.31862-4e-3 0.46828z" style="fill:#fff;stroke-width:.04494"/>
	<path d="m24.494 14.888c0.02907 0.09331 0.17945 0.07784 0.26633 0.12259 0.07624 0.03927 0.13756 0.12533 0.22328 0.12781 0.08181 0.0024 0.20913-0.02833 0.21978-0.10948 0.01406-0.10721-0.1425-0.17534-0.24324-0.21462-0.12964-0.05055-0.29573-0.07619-0.41734-0.0086-0.02787 0.01549-0.05828 0.05183-0.0488 0.08227z" style="fill:#202020"/>
	<path d="m23.606 14.888c-0.02907 0.09331-0.17945 0.07784-0.26633 0.12259-0.07624 0.03927-0.13756 0.12533-0.22328 0.12781-0.08181 0.0024-0.20913-0.02833-0.21978-0.10948-0.01406-0.10721 0.1425-0.17534 0.24324-0.21462 0.12964-0.05055 0.29573-0.07619 0.41734-0.0086 0.02787 0.01549 0.05828 0.05183 0.0488 0.08227z" style="fill:#202020"/>
</svg>
