<svg viewBox="0 0 50 50" xmlns="http://www.w3.org/2000/svg">
	<defs>
		<linearGradient id="f" x1=".043" x2=".984" gradientTransform="matrix(97.417 0 0 97.417 192.86 279.65)" gradientUnits="userSpaceOnUse">
			<stop stop-color="#6BBF47" offset=".16"/>
			<stop stop-color="#79B461" offset=".38"/>
			<stop stop-color="#75AC64" offset=".47"/>
			<stop stop-color="#659E5A" offset=".7"/>
			<stop stop-color="#3E863D" offset=".9"/>
		</linearGradient>
		<clipPath id="a">
			<path d="m239.03 226.6-42.13 24.317c-1.578 0.91-2.546 2.59-2.546 4.406v48.668c0 1.817 0.968 3.496 2.546 4.406l42.133 24.336c1.575 0.907 3.517 0.907 5.09 0l42.126-24.336c1.57-0.91 2.54-2.59 2.54-4.406v-48.668c0-1.816-0.97-3.496-2.55-4.406l-42.12-24.317c-0.79-0.453-1.67-0.68-2.55-0.68s-1.76 0.227-2.55 0.68"/>
		</clipPath>
		<linearGradient id="b" x1="-.348" x2="1.251" gradientTransform="matrix(-38.065 77.652 -77.652 -38.065 258.72 244.63)" gradientUnits="userSpaceOnUse">
			<stop stop-color="#3E863D" offset=".3"/>
			<stop stop-color="#55934F" offset=".5"/>
			<stop stop-color="#5AAD45" offset=".8"/>
		</linearGradient>
		<clipPath id="c">
			<path d="m195.4 307.09c0.403 0.523 0.907 0.976 1.5 1.316l36.14 20.875 6.02 3.46c0.9 0.52 1.926 0.74 2.934 0.665 0.336-0.027 0.672-0.09 1-0.183l44.434-81.36c-0.34-0.37-0.738-0.68-1.184-0.94l-27.586-15.93-14.582-8.39c-0.414-0.24-0.863-0.41-1.32-0.53z"/>
		</clipPath>
		<linearGradient id="d" x1="-.456" x2=".582" gradientTransform="matrix(106.81 -78.917 78.917 106.81 235.19 285.39)" gradientUnits="userSpaceOnUse">
			<stop stop-color="#3E863D" offset=".57"/>
			<stop stop-color="#619857" offset=".72"/>
			<stop stop-color="#76AC64" offset="1"/>
		</linearGradient>
		<clipPath id="e-8">
			<path d="m241.07 225.95c-0.707 0.07-1.398 0.29-2.035 0.652l-42.01 24.247 45.3 82.51c0.63-0.09 1.25-0.3 1.81-0.624l42.13-24.336c1.3-0.754 2.19-2.03 2.46-3.476l-46.18-78.89c-0.34-0.067-0.68-0.102-1.03-0.102-0.14 0-0.28 7e-3 -0.42 0.02"/>
		</clipPath>
	</defs>
	<g transform="matrix(.34368 0 0 .35379 -31.112 -15.918)">
		<g transform="translate(-78.306 -164.02)" clip-path="url(#a)">
			<path d="m331.36 246.79-118.72-58.19-60.87 124.17 118.71 58.193z" fill="url(#b)" style="fill:url(#b)"/>
		</g>
		<g transform="translate(-78.306 -164.02)" clip-path="url(#c)">
			<path d="m144.07 264 83.825 113.45 110.86-81.906-83.83-113.45z" fill="url(#d)" style="fill:url(#d)"/>
		</g>
		<g transform="translate(-78.306 -164.02)" clip-path="url(#e-8)">
			<path d="m197.02 225.93v107.43h91.683v-107.43z" fill="url(#f)" style="fill:url(#f)"/>
		</g>
	</g>
</svg>
