<svg viewBox="0 0 50 50" xmlns="http://www.w3.org/2000/svg">
	<title>PostHTML</title>
	<defs>
		<linearGradient id="linearGradient-1" x1="30.906" x2="634.77" y1="318.92" y2="318.92" gradientTransform="matrix(.072518 0 0 .03055 1.96 15.257)" gradientUnits="userSpaceOnUse">
			<stop stop-color="#FDBF40" offset="0"/>
			<stop stop-color="#FB6758" offset="1"/>
		</linearGradient>
		<linearGradient id="linearGradient-2" x2="635.43" y1="318.92" y2="318.92" gradientTransform="matrix(.072518 0 0 .03055 1.96 15.257)" gradientUnits="userSpaceOnUse">
			<stop stop-color="#FB6B57" offset="0"/>
			<stop stop-color="#FDBF44" offset=".53603"/>
			<stop stop-color="#FFDF9D" offset="1"/>
		</linearGradient>
	</defs>
	<path d="m24.976 18.26c-3.1604 0-5.6876-0.66832-8.3786-1.8659-1.4616-0.65049-3.3287-1.0897-4.941-1.0897-5.355 0-9.6961 4.3411-9.6961 9.6961 0 5.355 4.3411 9.6961 9.6961 9.6961 1.6095 0 3.598-0.39214 4.934-1.0861 2.4687-1.2823 5.2226-1.8691 8.3857-1.8691 3.1657 0 5.5095 0.67057 8.204 1.872 1.4536 0.64815 3.5094 1.0831 5.1165 1.0831 5.355 0 9.6961-4.3411 9.6961-9.6961 0-5.355-4.3411-9.6961-9.6961-9.6961-1.61 0-3.7874 0.39242-5.1237 1.0868-2.4678 1.2824-5.034 1.8688-8.1969 1.8688z" fill="url(#linearGradient-1)" style="fill-rule:evenodd;fill:url(#linearGradient-1)"/>
	<path d="m48.04 25c0-5.3606-4.3456-9.7061-9.7061-9.7061-1.6117 0-2.8141 0-5.129 1.0879-2.3149 1.0879-16.037 11.519-20.294 12.985-4.2567 1.4657-8.7479-0.3679-10.031-4.0955-0.60164-1.7473-0.39166-3.6006 0.43967-5.2276-0.86332 1.4508-1.3592 3.1457-1.3592 4.9564 0 5.3606 4.3456 9.7061 9.7061 9.7061 1.6111 0 3.12 0 4.9391-1.0872 1.819-1.0872 16.138-11.523 20.395-12.989 4.2567-1.4657 8.7479 0.3679 10.031 4.0955 0.77197 2.242 0.20772 4.6585-1.2908 6.5474 1.4342-1.6918 2.2992-3.8813 2.2992-6.2729z" fill="url(#linearGradient-2)" style="fill-rule:evenodd;fill:url(#linearGradient-2)"/>
</svg>
