<svg viewBox="0 0 50 50" xmlns="http://www.w3.org/2000/svg">
	<path d="m13.91 22.092c0.04807 0.03628 0.13152 0.05987 0.04807 0.13152-0.05987 0.08345-0.13152 0.15511-0.17915 0.2508-0.04762 0.0839-0.08345 0.10749-0.15511 0.04808 0.09524-0.15556 0.19048-0.29933 0.28573-0.43086zm23.99 12.525c0 0.03538 0.01179 0.05896 0.01179 0.09524 0.02404-0.04762 0.02404-0.07166 0.03628-0.09524zm0 0.10703v-0.01179zm-2.4346 4.661-2.0772-11.521c-0.03538-0.01134-0.083-0.03492-0.1669-0.05896 0.02404 0.04762 0.03628 0.08345 0.04807 0.11928 0.05896-0.01179 0.08345-0.01179 0.10703-0.02358 0-0.01179 0-0.02358 0.01225-0.03628l2.0772 11.522zm-2.1484-14.114c-0.01179 0.03538-0.01179 0.07166-0.01179 0.10749 0-0.03628 0-0.07257 0.0127-0.10794zm0.01179 0.23856c-0.01179 0-0.01179 0-0.02358-0.0127v0.01179c0.0127 0.01179 0.0127 0.01179 0.02449 0zm-0.02358 0.09524v-0.0839c-0.03492 0.01179-0.07075 0.01179-0.11883 0.02404 0.05987 0.02268 0.11973 0.03538 0.11973 0.05896z" fill="#dd3735" style="fill-rule:evenodd;stroke-width:.45353"/>
	<path d="m42.602 22.702c-0.02358-0.46623-0.03538-0.93247-0.08345-1.3982-0.08345-0.63359-0.1669-1.279-0.31022-1.9003-0.10749-0.51385-0.28573-1.0041-0.46533-1.4939-0.22677-0.57372-0.45354-1.1592-0.74017-1.7089-0.46533-0.88439-1.074-1.6735-1.635-2.4981-0.37099-0.5261-0.84811-0.95605-1.2064-1.4939-0.20273-0.31067-0.50116-0.57327-0.79958-0.81183-0.47757-0.38324-0.97873-0.73019-1.4799-1.0644a14.751 14.751 0 0 0-1.1701-0.74108c-0.32201-0.18005-0.66806-0.32337-1.0023-0.47893-0.38188-0.17915-0.75196-0.39457-1.1815-0.47803-0.10794-0.022677-0.20318-0.05896-0.31067-0.095242-0.27439-0.095242-0.53698-0.20273-0.81183-0.28663-0.41725-0.13152-0.82316-0.28663-1.2531-0.39457-0.41634-0.10749-0.8463-0.17869-1.2762-0.23901-0.47712-0.070298-0.96603-0.095242-1.4441-0.14196a12.168 12.168 0 0 0-0.91886-0.08345c-0.45353-0.024037-0.91886-0.024037-1.3724-0.035829-0.22677-0.012245-0.46533-0.036283-0.69209-0.024037-0.34605 0.011792-0.69209 0.047621-1.0386 0.095242-0.3338 0.036283-0.66806 0.095242-0.99007 0.14377-0.39321 0.047621-0.78688 0.071658-1.181 0.11973-0.37008 0.048075-0.75196 0.11973-1.1216 0.1796-0.13152 0.024037-0.26305 0.071658-0.39458 0.095242-0.28573 0.059867-0.58415 0.083904-0.87079 0.1796-0.51249 0.15602-1.0263 0.33562-1.5275 0.5261-0.46578 0.19139-0.91931 0.39457-1.3606 0.63359-0.45354 0.25035-0.88348 0.54878-1.313 0.83632a20.556 20.556 0 0 0-1.2064 0.87215c-0.38097 0.29933-0.73926 0.63359-1.0858 0.9683-0.19048 0.19048-0.34605 0.41816-0.52519 0.63313-0.29797 0.34695-0.5964 0.68121-0.88303 1.04-0.23765 0.29933-0.45354 0.60955-0.6803 0.92068-0.40501 0.54878-0.75105 1.1347-1.0731 1.7207-0.13152 0.23901-0.2508 0.47802-0.37008 0.71658-0.17915 0.35829-0.37008 0.70525-0.53698 1.0758-0.11973 0.25126-0.21498 0.5261-0.28663 0.80094-0.16645 0.58597-0.3338 1.1837-0.48891 1.7688-0.14332 0.5261-0.17915 1.0758-0.19048 1.6137-0.012246 0.47802 0.035376 0.94426 0.082997 1.4223 0.012245 0.11973-0.058959 0.26305 0.08345 0.35829-0.047621 0.13152-0.011792 0.20409 0.05896 0.22677-0.082543 0.13152 0.036283 0.21588-0.010885 0.33562-0.012245 0.02358 0.036283 0.0712 0.05896 0.10703 0 0.03628-0.011338 0.0839 0 0.11973 0.012699 0.10749 0.06032 0.21498 0.06032 0.33471 0 0.08345 0.071205 0.17915 0.095242 0.26305 0.011792 0.03538 0 0.09524-0.024037 0.11928-0.071658 0.08345-0.059867 0.15511 0.047621 0.20318 0.06032 0.15511 0.036283 0.22677 0.024491 0.29933 0.023584 0.10703-0.012245 0.14286 0 0.1669 0.095242 0.19139 0.13152 0.40637 0.14286 0.62134 0 0.04808 0.024037 0.09615 0.048075 0.15556 0.011792 0 0 0.22677 0 0.22677 0.05896-0.03538 0.10749-0.04717 0.1669-0.0712 0.036283 0.15511 0.071658 0.29933 0.11928 0.43086 0.059867 0.09524 0.059867 0.14241 0.036283 0.1542 0.047621 0.21498 0.071205 0.41816 0.1542 0.62134 0-0.22677-0.022677-0.45353-0.05896-0.66896 0.1669 0.05987 0.31022 0.11928 0.40591 0.11928 0.012246-0.03628 0.024037-0.08345 0.036283-0.10749-0.071658-0.07121-0.13152-0.17869-0.20318-0.25035 0.024037 0.09524 0 0.13152 0 0.16781-0.047621-0.02449-0.10749-0.04853-0.1669-0.07257 0.047621-0.05896 0.095242-0.11928 0.1669-0.19048 0-0.10794-0.05896-0.20409-0.22677-0.19185 0.071658-0.02358 0.14332-0.05896 0.22677-0.08345 0.13152-0.0712-0.011792-0.20273-0.011792-0.37008 0.011792-0.20273-0.10749-0.40591-0.14332-0.62134-0.059867-0.33426-0.047621-0.83632-0.08345-1.171-0.071658-0.05987-0.13152 0.09524-0.14332 0.10749 0.036283 0.28663 0.071658 0.57327 0.095242 0.86036-0.071205-0.23901-0.11928-0.50206-0.17869-0.78915-0.012246 0.0839-0.024037 0.11973-0.024037 0.16781-0.058959 0.05896-0.011792 0.13152 0.024037 0.21498-0.08345-0.03628-0.17915-0.02358-0.17915-0.02358v0.33471c-0.11883-0.11974-0.1542-0.21498-0.21452-0.29934-0.023584-0.09524-0.036283-0.19048-0.05896-0.28573 0.022677-0.06032 0-0.09615 0-0.13152a7.242 7.242 0 0 1-0.036282-0.28754c0.011792-0.01179-0.011792-0.19048-0.011792-0.19048 0.095242 0.01134 0.15556 0.02268 0.21498 0.02268-0.11928-0.1542-0.036283-0.25035 0.012245-0.34605 0.024037-0.04808 0.10749-0.05896 0.13152-0.10794 0.095242-0.17915 0.2508-0.32201 0.2508-0.54968 0-0.10749 0.036283-0.22677 0.047621-0.33471 0.024037-0.20318 0.047621-0.40637 0.05896-0.60955 0.024491-0.26305 0-0.5261 0.06032-0.7769 0.096149-0.41725 0.21543-0.83586 0.3465-1.2545 0.095242-0.29933 0.20318-0.58506 0.32201-0.88439 0.17915-0.46623 0.3465-0.93247 0.57327-1.3742 0.32201-0.64583 0.69209-1.2672 1.0504-1.9003 0.22677-0.39458 0.46533-0.76511 0.71658-1.1474 0.23811-0.37054 0.47621-0.75287 0.75151-1.0998a9.7292 9.7292 0 0 1 1.2654-1.3506c0.47757-0.42995 0.93111-0.87215 1.4441-1.2667a14.612 14.612 0 0 1 2.1248-1.3629c0.6091-0.32201 1.2413-0.57417 1.874-0.81319 0.40591-0.15511 0.8472-0.22677 1.2654-0.35829 0.47712-0.15556 0.95469-0.22677 1.4558-0.23901 0.32201-0.012245 0.63268-0.048075 0.95469-0.083904 0.28663-0.022677 0.57281-0.047168 0.88348-0.082997-0.03628 0.047621-0.04808 0.071658-0.05987 0.095242-0.13062 0.19139-0.27394 0.38278-0.40546 0.57372-0.10749 0.15556-0.22677 0.32292-0.33425 0.47803-0.19139 0.25171-0.39458 0.50252-0.57327 0.76557-0.27439 0.39458-0.52519 0.80094-0.81183 1.1951-0.28573 0.38233-0.5964 0.74108-0.89482 1.1112-0.39367 0.51431-0.76375 1.04-1.1574 1.5538-0.35829 0.48982-0.73926 0.95696-1.0858 1.4468-0.31022 0.4295-0.58506 0.88439-0.88348 1.3257-0.44129 0.65762-0.88303 1.3026-1.3243 1.9602a123.33 123.33 0 0 1-1.0504 1.4939c-0.02404 0.03628-0.05987 0.04717-0.09524 0.0712-0.09524 0.15511-0.09524 0.23901-0.13152 0.31067-0.09524 0.17915-0.19048 0.35829-0.29842 0.5261-0.05987 0.09524-0.14332 0.17869-0.21498 0.27439-0.01179-0.14332 0.19048-0.21498 0.09524-0.39458-0.05896 0.09615-0.11928 0.1796-0.17869 0.2753l-0.14331 0.28573c0.04762 0.03628 0.13152 0.06032 0.04762 0.13152-0.03628 0.06032-0.07166 0.13152-0.10749 0.19185a0.43267 0.43267 0 0 0 0.13152-0.11973c0 0.13152-0.07166 0.23856-0.13152 0.34605-0.04762 0.09524-0.1669 0.16781-0.25035 0.23901 0.01179 0.01225 0.09524 0.04807 0.10749 0.05987 0.10749-0.03628 0.14332-0.09524 0.15556-0.05987 0.03628-0.04762 0.07166-0.08345 0.08345-0.11928 0.04717-0.11973 0.11883-0.21498 0.23811-0.26305 0.04807-0.02404 0.08345-0.05987 0.11928-0.09524 0.35829-0.37099 0.72838-0.72928 1.0504-1.1239 0.50161-0.61 0.95514-1.2427 1.4332-1.864 0.20228-0.26305 0.44129-0.5261 0.65581-0.77736 0.03538 0.27484 0.01179 0.53744 0 0.78915-0.03628 0.44174-0.05987 0.88439-0.09524 1.3379-0.01225 0.17915 0 0.35829-0.01225 0.53789 0 0.04762-0.03628 0.08345-0.03628 0.13152 0 0.11928 0.03628 0.2508 0.03628 0.37054-0.03628 0.4422-0.08436 0.87215-0.12019 1.3143-0.01225 0.09524 0.03538 0.19139 0.05896 0.2753-0.05896 0.64493 0.07257 1.3266-0.03538 2.0078 0.08345-0.13152 0.10749-0.21498 0.10749-0.29842 0.01134-0.07166 0-0.14332 0-0.22677v-0.11973c0.01134-0.21543 0.05896-0.4422 0.03538-0.65762-0.02404-0.23901-0.02404-0.46578 0.02404-0.693 0.02404-0.09524-0.01179-0.21498 0.04807-0.33471v0.17915c-0.01179 0.6803 0.01225 1.362-0.083 2.0432-0.01225 0.05987 0.03628 0.16781-0.09524 0.15556-0.10794 0.21498 0.02358 0.37054-0.09524 0.48982-0.02449 0.02404 0.02268 0.13152 0.03492 0.20318-0.04808 0.14377-0.04808 0.14377 0.02358 0.15556 0.01179 0.26305 0.03628 0.50161 0.04762 0.75287 0.19048-0.45353 0.09524-0.92068 0.1796-1.3869 0.01179 0.19139 0.02404 0.38278 0.01179 0.58506 0 0.31158-0.01179 0.61-0.02358 0.92068 0 0.05987-0.01225 0.11973-0.02404 0.1796-0.03628 0.16781-0.04762 0.33471-0.10749 0.48982-0.04762 0.11973-0.02358 0.29933-0.02358 0.4422v0.4549c0.04762 0.20318-0.01225 0.31067 0.02358 0.42995-0.03628 0.12019-0.04762 0.15602-0.03628 0.19184l0.03628 0.17915c0.23901-0.02404 0.13152 0.15556 0.22677 0.2508-0.07166 0.09615-0.04762 0.13152-0.04762 0.18005 0 0.10749-0.01134 0.20318-0.02358 0.31067 0 0.27484-0.01179 0.54968-0.01179 0.81273 0 0.03628 0.01179 0.0712 0.01179 0.10703 0 0.02449-0.01179 0.33562-0.01179 0.33562 0.02404 0.03538 0 0.0712-0.03628 0.10703-0.01134 0-0.04717-1.518-0.04717-1.518h-0.17915c-0.02358 0.71658 0.03628 1.362-0.09524 2.0318-0.14332 0.01134-0.19048 0.03537-0.3465 0.03537-0.37008 0-0.74017 0-1.1103 0.01179-0.44174 0-0.87079 0.01179-1.313 0.01179-0.21407 0-0.44084 0.02449-0.65581 0.02449-0.28663 0-0.58506-0.03628-0.87079-0.03628-0.4422 0-0.87169 0.03628-1.3134 0.04808-0.32201 0.01179-0.64402 0.01179-0.96603 0.02404-0.21543 0.01134-0.43086 0.02268-0.64493 0.04717-0.095242 0.01179-0.17915 0.04762-0.29843 0.08345-0.036283 0-0.11928-0.01179-0.19048 0-0.12019 0.02404-0.22677 0.09524-0.34695 0.11973-0.17915 0.03628-0.22677 0.08345-0.20318 0.26305v0.11928c-0.011792 0.02358 0.26305-0.03628 0.26305-0.03628-0.024491 0-0.036283 0.07166-0.072565 0.13152 0.096149-0.03628 0.15556-0.05987 0.21543-0.08345 0.17915 0.0839 0.33425 0.03628 0.47712 0.07257 0.46533 0.11883 0.94244 0.16781 1.4196 0.21452 0.31067 0.02404 0.6091 0.03628 0.91931 0.04762 0.44129 0.02404 0.88303 0.04807 1.3243 0.04807 0.37008 0 0.72838-0.03628 1.0976-0.03628 0.51249 0 1.0268 0.02358 1.5397 0.03628 0.10749 0 0.22677-0.0127 0.34605-0.0127h0.87079c0.77645-0.02358 1.552-0.03628 2.328-0.05896 0.4422-0.0127 0.89573-0.03628 1.337-0.04853l1.3606-0.03628c0.52519-0.01179 1.0504-0.01179 1.5638-0.02268 0.39367 0 0.77554-0.01361 1.1701-0.02494 0.44084-0.01179 0.89437-0.04762 1.3361-0.0712 0.23901-0.01225 0.47802-0.03628 0.71658-0.05987 0.28663-0.02358 0.58506-0.05896 0.87079-0.0712 0.42995-0.02449 0.87169-0.03628 1.3016-0.06032 0.53698-0.03538 1.074-0.083 1.6227-0.09524 0.50161-0.02358 1.0146-0.01179 1.5162-0.02358 0.44174-0.01225 0.88348-0.03628 1.337-0.04807l0.75287-0.03628s0.5007-0.01179 0.75151-0.03628c0.4295-0.02358 0.85899-0.0712 1.2889-0.083 0.27394-0.01225 0.54878 0 0.82316-0.01225 0.44129-0.01179 0.89482-0.03628 1.3366-0.03628 0.16645 0 0.34559 0.02449 0.56057 0.03628-0.09524 0.0839-0.15511 0.13152-0.22677 0.19139 0.04762 0.01179 0.09524 0.03628 0.14332 0.05987a0.32201 0.32201 0 0 1-0.19048 0.05896c-0.02449 0.06032-0.04853 0.08436-0.07256 0.20409h0.21498c-0.08345 0-0.15511 0.10749-0.23856 0.17915-0.09524-0.02449-0.17915 0-0.22677 0.13152 0.08345 0.04717 0.07166 0.083 0.05987 0.13152-0.14332 0.04717-0.2508 0.09524-0.19048 0.25035-0.04853 0.02358-0.10794 0.04762-0.16781 0.08345-0.05896 0.09524-0.1669 0.11928-0.14332 0.2508 0.04808 0.01134 0.09524 0.03628 0.13152 0.04717-0.05987 0.02404-0.11928 0.05987-0.17915 0.08345-0.21452 0.13152-0.11883 0.19139-0.0712 0.25126-0.03628 0.02404-0.07166 0.04762-0.10749 0.05987 0.02358 0.10749 0.05896 0.13152 0.0712 0.13152a4.2179 4.2179 0 0 0-0.17915 0.14332c-0.03628 0.10749-0.0839 0.15511-0.13152 0.22677-0.04762 0.07166-0.07166 0.16781-0.13152 0.23901-0.25035 0.2753-0.4295 0.59867-0.75151 0.81319-0.11973 0.0839-0.22677 0.19139-0.33426 0.29933-0.21498 0.20273-0.40591 0.42995-0.63268 0.62134a13.422 13.422 0 0 1-0.93065 0.70479 68.738 68.738 0 0 1-1.181 0.81273c-0.21498 0.14286-0.45353 0.25035-0.6803 0.38188-0.22677 0.13152-0.44174 0.25126-0.66851 0.38233-0.14332 0.09524-0.27484 0.22677-0.42995 0.29933-0.39367 0.16781-0.81183 0.31067-1.2173 0.46623-0.39458 0.16781-0.6803 0.31067-0.97873 0.41816-0.27439 0.09524-0.56102 0.16781-0.8472 0.22677-0.09524 0.02449-0.20318 0-0.31067 0.01225-0.20318 0.03628-0.40591 0.08436-0.6091 0.10794-0.52519 0.07166-1.0504 0.11973-1.5751 0.19139-0.31067 0.03628-0.6091 0.09524-0.91931 0.13152-0.21452 0.01179-0.44129-0.01179-0.65626-0.01179-0.15511 0-0.32201 0.03628-0.47757 0.01225-0.25035-0.03628-0.50116-0.09524-0.75196-0.14332-0.05896-0.01179-0.14332-0.03628-0.19048-0.01179-0.09524 0.04807-0.1796-0.02358-0.2753 0-0.05896 0.01225-0.11883-0.03628-0.17869-0.03628-0.04808-0.01134-0.10794 0.0127-0.16781 0-0.13152-0.03538-0.25035-0.083-0.39458-0.0712-0.14196 0.01179-0.28573-0.05987-0.43993-0.09524-0.21543-0.04807-0.41725-0.09524-0.63313-0.14377a1.0794 1.0794 0 0 1-0.23811-0.10749c-0.31067 0-0.51385-0.01179-0.70479-0.0839-0.1669-0.05896-0.32201-0.14286-0.50116-0.11883-0.04717 0.01179-0.083-0.01179-0.13152-0.01179-0.03628-0.04807-0.0712-0.14377-0.10658-0.14377-0.23856 0.01225-0.38188-0.19048-0.58506-0.2508-0.10703-0.03628-0.19048-0.15556-0.29797-0.19139-0.26305-0.10749-0.47712-0.33426-0.77554-0.37008-0.09524-0.01225-0.19048-0.05987-0.29842-0.09524 0.03628 0.04717 0.05896 0.083 0.09524 0.11883-0.34605-0.16781-0.66806-0.35829-0.99052-0.53789-0.04717-0.01179-0.083-0.05896-0.11883-0.08345l-0.32201-0.21498c-0.17915 0.03628-0.2508-0.03628-0.29933-0.05987-0.32201-0.22677-0.69164-0.37054-1.0023-0.62134-0.13152-0.10794-0.28573-0.1796-0.38097-0.31112-0.16781-0.20318-0.37054-0.3465-0.5973-0.46578-0.17869-0.09524-0.34559-0.20318-0.51249-0.31067-0.0839-0.05987-0.16781-0.13152-0.16781-0.26305 0-0.0839-0.03538-0.16781-0.14286-0.11973-0.04762-0.07166-0.09524-0.15511-0.15511-0.17915-0.14332-0.05896-0.23856-0.16781-0.34605-0.26305-0.10749-0.09524-0.19048-0.22677-0.32201-0.27439-0.23901-0.09524-0.38233-0.29842-0.52519-0.46578-0.33471-0.39458-0.63313-0.82543-0.94335-1.2427-0.02404-0.03628-0.07166-0.06032-0.10749-0.09615 0.04762 0.13152 0.10749 0.23901 0.1669 0.35829-0.11883-0.04762-0.20228-0.13152-0.27393-0.21498-0.01225 0.01225 0.82316 1.3865 0.82316 1.3865 0.07257 0.10749 0.13152 0.21543 0.20318 0.32292a0.36872 0.36872 0 0 1-0.35829-0.19139c-0.10703-0.19048-0.22677-0.31022-0.46533-0.28573a2.0808 2.0808 0 0 1-0.05896-0.26305c-0.04853 0-0.0839 0-0.16781-0.01225 0.16781 0.26305 0.31067 0.48982 0.46578 0.75287-0.06032-0.03628-0.09524-0.05987-0.12019-0.07166 0.21452 0.22677 0.36963 0.51386 0.64402 0.65762 0.05987 0.27439 0.37008 0.40591 0.44174 0.66896-0.05896-0.01225-0.10794-0.02404-0.16781-0.03628-0.09524-0.11928-0.20273-0.23856-0.30976-0.37008 0.02358 0.08345 0.05896 0.15511 0.10703 0.21498 0.14332 0.17915 0.27484 0.35829 0.44174 0.51385 0.05987 0.06077 0.14332 0.08481 0.14332 0.1923 0.09524 0.04762 0.13152 0.05896 0.1669 0.05896 0.02449 0.07257-0.01134 0.18005 0.13152 0.15602 0.09524 0.17915 0.19048 0.17915 0.32201 0.11973 0.15556 0.15556 0.23947 0.16781 0.3465 0.07257 0 0.05896 0.01179 0.11883 0.01179 0.1669 0.04762-0.02404 0.03628-0.05987 0.03628-0.11973 0.05896 0.04762 0.09524 0.07166 0.11883 0.09524 0.11928 0.16781 0.22677 0.32292 0.39367 0.45444 0.22677 0.19139 0.42995 0.39458 0.64402 0.57372 0.41816 0.34695 0.88439 0.63404 1.3493 0.89664 0.57327 0.32292 1.1225 0.66942 1.7071 0.97963 0.70388 0.37099 1.4558 0.62225 2.2314 0.8014 0.28663 0.05987 0.56102 0.11928 0.84811 0.19048 0.24944 0.07256 0.5007 0.18005 0.75151 0.23947 0.38188 0.0839 0.77554 0.15556 1.1574 0.22677 0.083 0.01225 0.16781 0.02449 0.26305 0.03628 0.10658 0.02404 0.23765-0.02404 0.26169 0.01225 0.05987 0.09524 0.10749 0.04717 0.17915 0.03538 0.08345-0.02404 0.17915-0.02404 0.27439-0.02404 0.33425 0.01179 0.65626 0.08345 0.99052 0.05987 0.07257 0 0.1796-0.06032 0.23947 0.05896 0.10703-0.04762 0.1669-0.04762 0.21452-0.05896 0.0127 0.10703 0 0.10703-0.02268 0.11883-0.02449 0.01179-0.06032 0.02404-0.10794 0.05987 0.4295 0.08345 0.83541 0.09524 1.1928 0 0.62134 0.04762 1.1583-0.02404 1.6717-0.20318 0.04762 0.05987 0.08345 0.14332 0.15511 0.02404 0.02358-0.03628 0.08345-0.04853 0.13152-0.06032 0.10703-0.02404 0.23856-0.07166 0.3338-0.03628 0.10794 0.03628 0.14377-0.05896 0.22677-0.05896 0.14377 0 0.27484-0.01225 0.40637-0.03628 0.07166-0.01179 0.14332-0.04762 0.22677-0.07166a0.58279 0.58279 0 0 0-0.26305-0.06032c0.14377-0.07166 0.27484-0.13152 0.40637-0.19048-0.02404 0.03538-0.04807 0.083-0.09524 0.083h0.16645c-0.03628 0-0.0839 0.10749-0.14332 0.17915 0.42904-0.10749 0.82271-0.20318 1.205-0.29933-0.13152-0.25035 0.14286-0.16645 0.23856-0.31022-0.11928 0.03628-0.23856 0.07166-0.35829 0.09524 0.40591-0.20273 0.82362-0.38188 1.2291-0.56102-0.05896 0.07166-0.13152 0.10749-0.2381 0.16781 0.07166 0.01134 0.11928 0.01134 0.15511 0.02268 0.19048 0.06032 0.14332-0.11883 0.20273-0.22677 0.22677 0 0.32201-0.03538 0.4295-0.07166 0.11928-0.03628 0.23856-0.07166 0.35829-0.11928 0.19048-0.08345 0.36963-0.19048 0.56057-0.28573 0.03628-0.0127 0.09524 0 0.14332 0 0.13152-0.08436 0.17869-0.15602 0.21452-0.14422 0.16781 0.02404 0.28573-0.03628 0.3338-0.19048 0.08345-0.06032 0.14332-0.10794 0.20273-0.14422 0.26214-0.14332 0.51249-0.28663 0.77554-0.42995 0.09524 0 0.14332 0 0.1669-0.01225 0.15602-0.07257 0.29933-0.15511 0.4422-0.23901a1.0241 1.0241 0 0 1-0.11928-0.05896c0.11883-0.02449 0.1542-0.03628 0.22677-0.06032 0.28573-0.33562 0.6803-0.56238 0.97827-0.82543 0.13152-0.01179 0.13152-0.04762 0.13152-0.0712 0.04717-0.05987 0.09524-0.13152 0.1542-0.1796 0.26305-0.23901 0.54878-0.4422 0.78779-0.693a16.853 16.853 0 0 0 0.99052-1.0767c0.28573-0.33471 0.57327-0.66896 0.81183-1.0395 0.33426-0.51385 0.62044-1.04 0.91886-1.5783 0.21498-0.38188 0.40591-0.7642 0.62134-1.1465 0.02268-0.03628 0.0712-0.0839 0.10703-0.0839 0.32201-0.03628 0.64493-0.05896 0.95514-0.09524 0.07166-0.01179 0.15511-0.05896 0.22677-0.09524-0.03628-0.05987-0.05987-0.13152-0.09524-0.19139-0.04808-0.07257-0.11973-0.13152-0.16781-0.20409-0.04717-0.05896-0.083-0.13152-0.11883-0.20273-0.03628-0.05896-0.07166-0.10703-0.10749-0.16781a4.3993 4.3993 0 0 1-0.20409-0.40546c-0.01179-0.03628-0.03628-0.09524-0.02358-0.13152 0.21498-0.46578 0.29843-0.96784 0.50116-1.4341 0.20273-0.47802 0.26305-1.0159 0.35829-1.5298 0.08345-0.48982 0.13152-0.97963 0.19048-1.4695 0.03628-0.3465 0.0839-0.68121 0.09524-1.0277 0.07256-0.54968 0.04807-1.064 0.03628-1.5783-0.01179-0.45353-0.03628-0.91977-0.05896-1.3742zm-29.945 14.712c-0.08345-0.09524-0.15511-0.20318-0.23856-0.29842l0.03628-0.03628c0.13016 0.14377 0.26169 0.28709 0.39276 0.44265-0.07166-0.03628-0.15511-0.05987-0.19048-0.10794zm0.19048 0.10794c0.03628-0.01225 0.07256-0.01225 0.10794-0.02404 0.03628 0.05987 0.05987 0.13152 0.09524 0.20318-0.1669-0.01225-0.25035-0.0839-0.20273-0.17915zm12.413 4.9358v-0.03628c0.22677-0.02358 0.44129-0.04762 0.66806-0.0712v0.03492c-0.22677 0.03628-0.44129 0.05896-0.66806 0.07166zm3.0069-0.31067c-0.16645 0.03628-0.34559 0.06032-0.51249 0.08436-0.05987 0.01179-0.13152 0.07166-0.15511-0.03628-0.02404 0.01225-0.04807 0.01225-0.07166 0.02449 0.05896 0.17869 0.20273 0.03538 0.32201 0.10703-0.26305 0.03628-0.51249 0.05987-0.76375 0.09524v-0.02358c0.07257-0.01179 0.15556-0.02404 0.22677-0.03628v-0.03538a3.5117 3.5117 0 0 0-0.35829-0.02404c-0.03492 0-0.083 0.04807-0.11883 0.05987-0.04762 0.01179-0.09524 0.02404-0.15511 0.02404-0.20273 0.01179-0.40546 0.01179-0.59685 0.02358-0.01225 0-0.03628-0.01179-0.04807-0.01179v-0.03628c0.79958-0.10703 1.5874-0.21452 2.387-0.32201 0.01225 0.02358 0.01225 0.04762 0.02404 0.0712-0.07166 0-0.11928 0.02495-0.17915 0.03628zm0.1796-0.11883c0.27484-0.03628 0.5261-0.05987 0.78824-0.09524-0.54878 0.15511-0.72792 0.17869-0.78779 0.09524zm-10.395-24.13c0.38097-0.5261 0.77554-1.0522 1.1574-1.5896 0.11928-0.15647 0.21452-0.32382 0.3338-0.47893 0.03628-0.04808 0.0839-0.07166 0.14332-0.11973l-0.01179-0.02268c0.04762-0.06032 0.09524-0.10885 0.11928-0.15602 0.06077-0.09524 0.0966-0.20318 0.14422-0.31067 0.01179-0.02268 0.04762-0.04671 0.04762-0.04671 0.16781 0.08345 0.16781-0.09524 0.22677-0.15556 0.10749-0.11973 0.21498-0.2508 0.31022-0.37054 0.07166-0.09524 0.14332-0.17915 0.20318-0.28663 0.01179-0.03628-0.02404-0.09524-0.03628-0.14377h-0.03537c0.03628-0.02358 0.07166-0.05896 0.10749-0.08345 0.01179 0 0.01179 0 0.02358-0.01179 0.07166-0.10794 0.14332-0.21543 0.21498-0.31112 0.14286-0.19048 0.29797-0.38188 0.46487-0.54878-0.02358 0.05896-0.04762 0.11928-0.07166 0.1669 0.01225 0 0.01225 0.01225 0.02404 0.01225 0.14332-0.19139 0.29843-0.37054 0.44174-0.56238-0.01225-0.01134-0.02404-0.02358-0.03628-0.02358-0.05896 0.05987-0.10703 0.11973-0.1669 0.1796-0.01179-0.01225-0.02358-0.02404-0.03628-0.02404 0.12019-0.15556 0.23947-0.31067 0.35829-0.48982 0.02404 0.03628 0.04807 0.08345 0.09524 0.17915 0.04853-0.11928 0.09615-0.20273 0.13152-0.28663-0.03538 0.03628-0.083 0.07166-0.11883 0.10794l-0.03628-0.03628 0.21498-0.32201c0.22677-0.32292 0.45354-0.65762 0.6803-0.98054 0.0839-0.11928 0.19048-0.21498 0.26305-0.33471 0.22677-0.45354 0.58506-0.81273 0.85899-1.2309 0.05987-0.08345 0.14332-0.15511 0.21498-0.22677 0.05896-0.072566 0.10749-0.048075 0.15511 0.011792 0.32201 0.40637 0.64402 0.82453 0.96603 1.2309 0.23947 0.29933 0.47802 0.58506 0.70479 0.89618 0.27439 0.38278 0.53698 0.76511 0.81183 1.1474 0.31022 0.4422 0.62044 0.88439 0.91886 1.3379 0.45354 0.66987 0.88303 1.3393 1.3366 2.0082 0.33426 0.48982 0.66851 0.9683 0.99052 1.4581h-0.60955c-0.56057-0.01134-1.1338-0.05896-1.6944-0.03538-0.76375 0.03628-1.5393 0.11973-2.303 0.1796-0.96694 0.0839-1.9457 0.09524-2.9117 0.09524-0.34695 0-0.693 0.04853-1.0386 0.07256-0.41816 0.02358-0.82407 0.04762-1.2418 0.05896-0.48982 0.02449-0.96603 0.03628-1.4558 0.04853-0.27484 0.01179-0.56102 0-0.85945 0zm13.689 5.4968v0.10794c-0.01179 0-0.02358 0.01225-0.04762 0.01225-0.04762-0.16781-0.09524-0.34741-0.15511-0.51476-0.11928-0.34695-0.2508-0.69391-0.46578-1.0041-0.23947-0.33426-0.45354-0.6803-0.693-1.0273-0.05896-0.0839-0.14332-0.15556-0.21498-0.22677-0.2508-0.2753-0.50161-0.56238-0.82362-0.76511a9.7442 9.7442 0 0 0-1.4921-0.76557 3.3444 3.3444 0 0 1-0.41725-0.21498h0.28573l2.0409-0.03628c0.44174-0.01134 0.87169-0.01134 1.313-0.03538 0.10703 0 0.1669 0.03628 0.22677 0.13152 0.10703 0.17915 0.21452 0.35829 0.3338 0.53789 0.01225 0.02358 0.03628 0.05896 0.03628 0.09524 0 0.26305 0 0.53789 0.01179 0.80094 0.01134 0.27484 0.03628 0.53789 0.04717 0.81273 0 0.27484-0.02404 0.56148-0.01179 0.84811 0.01225 0.40682 0.02404 0.82543 0.02404 1.2427zm-12.842-4.002c0.56102-0.02404 1.0976-0.05987 1.6472-0.0839 0.42859-0.02404 0.87079-0.03628 1.2998-0.05987 0.17915-0.01134 0.3465-0.02268 0.52519 0-0.19048 0.09615-0.38188 0.19184-0.54878 0.31112-0.21498 0.14332-0.41725 0.33426-0.63268 0.48982-0.21543 0.15511-0.40637 0.3465-0.58506 0.54968-0.22677 0.27439-0.47757 0.5134-0.71658 0.77645-0.16781 0.19139-0.35829 0.37054-0.50116 0.57372-0.20273 0.26305-0.38188 0.54878-0.57281 0.84811 0.05987-1.1356 0.13152-2.2586 0.08345-3.406zm7.794 11.497c-0.38233 0.09524-0.77554 0.20318-1.1701 0.2508-0.3338 0.04808-0.6803 0.03628-1.0263 0.03628-0.31112 0-0.60955-0.01179-0.91977-0.03628-0.34605-0.03537-0.69209-0.0712-1.0263-0.22677-0.28709-0.13152-0.58506-0.2508-0.87079-0.39458-0.28754-0.14332-0.57372-0.31022-0.78915-0.57327-0.1542-0.19184-0.36963-0.34695-0.56057-0.51431 0.03628 0.14332 0.11928 0.26305 0.2508 0.3465-0.05987 0.07166-0.14332 0.03628-0.26305-0.15556-0.03538 0.02404-0.0712 0.03628-0.09524 0.04807 0.03628-0.0839 0.07166-0.16781 0.10749-0.23901-0.04762-0.09524-0.10749-0.20318-0.15511-0.29933-0.09524-0.15511-0.19048-0.32201-0.27439-0.47757-0.02404-0.03628-0.02404-0.07166-0.04762-0.10749a2.6727 2.6727 0 0 1-0.16781-0.21543c-0.09524-0.14286-0.17869-0.29797-0.29797-0.44174 0 0.03628 0.01225 0.07166 0.01225 0.11973-0.01225 0-0.02404 0.01179-0.02404 0.01179l-0.25126-0.60955c-0.01179 0-0.01179 0-0.02358 0.01179l0.21452 0.78915c-0.01179 0-0.02358 0.01134-0.03628 0.01134-0.03492-0.04717-0.07075-0.09524-0.09524-0.1542-0.02358-0.09615-0.09524-0.09615-0.1542-0.06032-0.03628 0.02404-0.06032 0.10749-0.04807 0.14332 0.0839 0.20318 0.17915 0.40637 0.27484 0.60955 0.02358 0.07166 0.04762 0.13152 0.08345 0.20318 0.01225 0.02404 0.04808 0.04762 0.04808 0.08345 0.04807 0.09524 0.0839 0.19048 0.14332 0.27484 0.10749 0.14332 0.22677 0.28663 0.33426 0.42995 0.10658 0.14332 0.20182 0.29933 0.29752 0.4422 0.01179 0.02404 0.04762 0.02404 0.05896 0.03628 0.06032 0.17915 0.26305 0.31022 0.40637 0.23856 0.03628 0.27484 0.33426 0.37054 0.45354 0.63359a5.4229 5.4229 0 0 1-0.34607-0.15555c-0.01225 0.01179-0.01225 0.02358-0.02449 0.04762 0.14332 0.07166 0.28663 0.14332 0.41725 0.22677 0.12019 0.07257 0.23947 0.14377 0.34695 0.22677 0.14332 0.13152 0.31067 0.20409 0.51249 0.25126-0.01088-0.03628-0.02268-0.04853-0.02268-0.04853 0.3338 0.15556 0.6803 0.32292 0.94244 0.45354-1.2413 0.02449-2.5661 0.04853-3.9389 0.07256 0-0.22677-0.01179-0.4422-0.01179-0.66942 0-0.09524 0.02358-0.17915 0.01134-0.27484-0.03628-0.54878-0.03628-1.0994-0.10749-1.6373-0.0712-0.57327-0.0712-1.1352-0.05896-1.7098 0.01134-0.30976-0.01225-0.63223-0.02449-0.94335 0-0.41816 0-0.82543 0.0127-1.2427 0-0.05987 0.02404-0.10749 0.04808-0.16781h0.03628c0.01134 0.02449 0 0.06032 0.02268 0.07257 0.03628 0.03628 0.09615 0.09524 0.12019 0.08345 0.0712-0.04807 0.17869-0.09524 0.20273-0.16781 0.05896-0.14286 0.08345-0.29842 0.08345-0.44174 0-0.10703 0.04808-0.17869 0.09524-0.2508 0.02449-0.03628 0.03628-0.07166 0.06032-0.11928-0.04762-0.03628-0.09524-0.05987-0.15511-0.10749 0.04807-0.13152 0.03628-0.28709 0.21543-0.35829 0.02358-0.01225 0.02358-0.07257 0.03628-0.10794 0.01134-0.0966 0.02268-0.20409 0.03538-0.29933 0.02358 0.03628 0.03628 0.04762 0.05896 0.0712a0.19048 0.19048 0 0 1 0.02449-0.03628c0-0.04717-0.01179-0.14286 0-0.14286 0.14332-0.02404 0.08345-0.17915 0.15511-0.2508 0.01134-0.0127-0.01225-0.04853-0.01225-0.07257 0-0.02358 0-0.05896 0.01179-0.05896 0.16645-0.03628 0.14286-0.21543 0.25035-0.29933 0.03628-0.02404 0.04762-0.05896 0.09524-0.11928 0.09524 0.1669-0.07166 0.2508-0.08345 0.37008 0.20228-0.11928 0.26214-0.40591 0.14286-0.48982 0.04762-0.03628 0.09524-0.08345 0.13152-0.13152 0.13152-0.14332 0.27394-0.27484 0.39367-0.41816 0.0839-0.10703 0.13152-0.23856 0.21498-0.34605 0.04808-0.05987 0.14332-0.10749 0.21498-0.14377 0.21498-0.11883 0.41725-0.25035 0.54878-0.45353 0.02404-0.02404 0.05987-0.04762 0.09524-0.07166 0.03628-0.02404 0.10794-0.02404 0.11973-0.05987 0.01225-0.02358-0.02358-0.08345-0.04762-0.11928 0.04717-0.02404 0.09524-0.07166 0.19048-0.11973-0.03628 0.07166-0.04762 0.11973-0.07166 0.16781l0.05896 0.05896c0.10794-0.08345 0.27484-0.17869 0.38233-0.25035 0-0.01134-0.05987-0.05896-0.05987-0.05896-0.0712 0.03628-0.17869 0.09524-0.28573 0.14332 0.02268-0.03628 0.02268-0.05987 0.03628-0.07166 0.16645-0.10749 0.33335-0.21498 0.51249-0.29933 0.41725-0.19048 0.83541-0.38188 1.2531-0.56102 0.07166-0.03628 0.16781-0.01179 0.2508-0.01179 0.03538 0 0.05896 0 0.09524-0.01179 0.19048-0.05987 0.38188-0.11973 0.57281-0.16781 0.083-0.02358 0.17824-0.03538 0.26305-0.03538 0.35693 0.01134 0.71522 0.01134 1.0731 0.03538 0.15511 0.01179 0.29843 0.04762 0.44174 0.09524a4.4809 4.4809 0 0 1 0.53698 0.22677c0.20273 0.10885 0.39367 0.22767 0.58506 0.3592 0.34605 0.22677 0.66806 0.47803 1.0141 0.68121 0.33426 0.20318 0.59685 0.47802 0.81183 0.78915 0.26305 0.37008 0.56102 0.70479 0.6803 1.1588l0.17869 0.78915c0.03628 0.14332 0.11973 0.28663 0.0839 0.45354-0.06032 0.29933-0.10794 0.61-0.15556 0.90888-0.02358 0.12019-0.04762 0.24037-0.03538 0.35829 0.02268 0.3719-0.12019 0.69391-0.26305 1.0286-0.04807 0.10749-0.11973 0.21543-0.17915 0.33471a0.36192 0.36192 0 0 0 0.09524 0.04808l0.10749-0.21498c0.01225 0 0.01225 0 0.02404 0.01225-0.05987 0.1669-0.10749 0.3465-0.16781 0.51386-0.14241 0.37054-0.28573 0.75287-0.46487 1.1112-0.09524 0.20318-0.26305 0.37054-0.38188 0.56238-0.11883 0.1669-0.21452 0.34605-0.3338 0.50161-0.10749 0.13152-0.21452 0.26305-0.35829 0.35829-0.32201 0.23901-0.65626 0.47802-1.0023 0.66942-0.21452 0.13152-0.46533 0.20318-0.70389 0.26305zm-6.3617-0.63495-0.01179 0.01225c-0.02495-0.01179-0.06077-0.02358-0.08436-0.04762l-0.28663-0.43086c-0.02358-0.03537-0.03628-0.0712-0.02358-0.11883 0.13152 0.20318 0.26305 0.39458 0.40591 0.58506zm7.4244 1.6373c0.53653-0.22677 0.97827-0.54878 1.3833-0.91977 0.06032-0.05987 0.11973-0.11928 0.19139-0.16781 0.50161-0.31022 0.87079-0.74062 1.2055-1.2186 0.38188-0.54968 0.63268-1.171 0.94335-1.7565a1.2381 1.2381 0 0 1 0.0712-0.13152c-0.02404 1.3624 0.13152 2.7008 0.31022 4.0514-1.3484 0.04762-2.7212 0.09524-4.1054 0.14332zm12.102-0.35829c-0.01179 0.02404-0.03628 0.04807-0.04762 0.07256-0.01225-0.02449-0.01225-0.06032-0.02404-0.10885-0.07166 0.19184-0.22677 0.09615-0.33426 0.09615-0.64402 0.01225-1.3007 0.01225-1.9457 0.01225-0.62044 0-1.2527 0-1.8731 0.01089-0.20318 0-0.41816 0.04762-0.62134 0.05987-0.48891 0.02358-0.97827 0.03628-1.4676 0.04762-0.03628 0-0.07166-0.05896-0.13152-0.10703a0.8209 0.8209 0 0 1-0.07166 0.10749c-0.0127-0.02358-0.03628-0.04717-0.06032-0.083-0.01179 0.03628-0.02404 0.07166-0.03628 0.09524h-0.03447c-0.02404-0.1669-0.07166-0.32201-0.07166-0.48982 0-0.35829 0.03628-0.71658 0.04762-1.0758 0.01225-0.1669 0-0.32201 0-0.47802 0.04807 0.03628 0.0839 0.06032 0.13152 0.09524 0.02358-0.04671 0.04762-0.08254 0.07166-0.11792 0 0-0.02404-0.0127-0.04807-0.03628 0.02268-0.01225 0.04717-0.03628 0.04717-0.04808 0.01179-0.03628 0.03628-0.07166 0.03628-0.09524 0-0.0839-0.02449-0.15556-0.03628-0.22677 0.01179 0 0.02358 0 0.03628-0.0127l0.0712 0.35829h0.03628c-0.04808-0.083 0.10703-0.15511-0.02404-0.25035-0.01179-0.01225 0.01179-0.0839 0.01179-0.11973-0.03628-0.0712-0.05896-0.14286-0.09524-0.23856 0.01179-0.01179 0.04762-0.02404 0.08345-0.03628-0.04762-0.02358-0.08345-0.04717-0.11928-0.05896 0.11928-0.10794 0.11928-0.16781 0.01179-0.28709 0.02449-0.01134 0.04807-0.01134 0.04807-0.02268 0-0.10794 0-0.21543-0.02358-0.32201-0.02404-0.12064 0.03628-0.26305-0.14332-0.33562a0.35829 0.35829 0 0 0 0.04762 0.09524s-0.03628 0.01225-0.07166 0.03628c-0.15511-0.14377-0.05896-0.33562-0.09524-0.55014 0.08345 0.02404 0.14332 0.04808 0.20273 0.07257-0.02404-0.08436-0.08345-0.18005-0.11928-0.28754h-0.04853v-0.78915c0 0.01225 0.08345 0.01225 0.13152 0.02449 0-0.01225 0.01134-0.02404 0.01134-0.03628-0.03628-0.04762-0.0839-0.09524-0.13152-0.15511l0.02404-0.02404c-0.09524-0.11883-0.04762-0.28573-0.04762-0.32201v-0.83677c0.11973 0.11973-0.05896 0.27484 0.11973 0.3465v-0.11928h-0.01225c-0.01179-0.17915-0.01179-0.35829-0.02358-0.53789h-0.02358c-0.01225 0.02449-0.01225 0.03628-0.02449 0.06032h-0.02358l0.07166-2.8564c0.11928 0.15511 0.25035 0.29933 0.3338 0.45353 0.27484 0.50252 0.63268 0.93292 0.96694 1.3869 0.28663 0.39458 0.54878 0.82452 0.81183 1.2309 0.32201 0.48982 0.63223 0.97963 0.95469 1.4695a36.922 36.922 0 0 0 0.73926 1.1003c0.22677 0.32201 0.46623 0.63313 0.70479 0.94426 0.20228 0.27484 0.41725 0.54968 0.61998 0.82452 0.23901 0.33471 0.47757 0.66896 0.71658 0.99188 0.11883 0.1669 0.25035 0.33426 0.38097 0.50161 0.07257 0.09524 0.1796 0.16781 0.25126 0.22677-0.01134 0-0.02358 0-0.04717-0.01179 0.03628 0.04762 0.05896 0.08345 0.08345 0.10749 0.13152 0.07166 0.14332 0.14332 0.07166 0.25126zm0.60864-2.987v-0.0839c0 0.02358 0.01179 0.05896 0 0.08345zm0.40591-5.2701c-0.01225 0-0.08345-0.07257-0.09524-0.08436-0.01225 0.03628 0 0.07166-0.02404 0.11973-0.01225-0.03538-0.09524-0.02358-0.09524-0.05896-0.01225 0.1669 0.0712 0.33425 0.05896 0.50161 0.03628-0.02404 0.17915-0.03628 0.21498-0.07166 0.01225 0.01179 0.03628 0.02358 0.04807 0.02358-0.23901 0.1796-0.17915 0.35829-0.07166 0.56238 0.02358 0.04717 0.09524 0.14286 0.02358 0.23856-0.02358 0.02404 0.01225 0.09524 0.02404 0.15556h0.03492v0.02268l-0.10749 0.03628c-0.02358-0.03628-0.16645-0.10703-0.16645-0.16781v0.61046c0.11928 0.03628 0.11928 0.20318 0.1669 0.28709a0.34831 0.34831 0 0 0 0.04853-0.09524l0.01225 0.01088c-0.01225 0.07166-0.02404 0.14332-0.04807 0.21543-0.02358 0.10703-0.04762 0.20273-0.05896 0.31022 0 0.01179 0.02268 0.03628 0.02268 0.04762-0.13062 0.29933-0.05896 0.63313-0.10658 0.94335-0.03628 0.22677 0 0.46714-0.02404 0.7057-0.02449 0.20318-0.07257 0.41816-0.11973 0.62134-0.01225 0.03628-0.03628 0.04762-0.09524 0.07166 0.02358-0.14332 0.01179-0.23901-0.01225-0.37054-0.0127 0-0.16781-0.08345-0.18005-0.08345 0 0.16781 0.09524 0.39458 0.13152 0.58506-0.03628-0.01179-0.17915-0.09524-0.19048-0.09524-0.02449 0.14332-0.02449 0.33471-0.03628 0.48982-0.01225 0.11973-0.11928 0.22677-0.13152 0.35829 0 0.07256 0.08345 0.11973 0.07166 0.23947h0.09524c0-0.23856 0.10794-0.45354 0.10794-0.70479h0.03538c0.01225 0.02404 0.04807 0.04808 0.03628 0.05987-0.02404 0.13152-0.07257 0.27484-0.05987 0.40637 0 0.07166 0.05896 0.14332 0.03628 0.22677-0.02449 0.07256-0.03628 0.14377-0.04853 0.25126-0.01225-0.05987-0.02404-0.08345-0.02404-0.11928-0.01179 0-0.11928-0.01225-0.13152-0.01225-0.01179 0.07166 0.0839 0.14332 0.07166 0.20318-0.01179 0.01179-0.02358 0.01179-0.04762 0.02404l-0.39367-0.57418c-0.31112-0.45353-0.62134-0.90843-0.93156-1.3742a2.8627 2.8627 0 0 1-0.21543-0.35829 16.822 16.822 0 0 0-1.2291-1.8291c-0.34559-0.44174-0.62134-0.92067-0.94335-1.3855-0.29752-0.4422-0.59594-0.8726-0.89437-1.3152-0.10749-0.14286-0.23856-0.27439-0.33426-0.42995-0.30976-0.48982-0.58506-0.99188-0.89437-1.4817-0.26305-0.40682-0.54878-0.8014-0.82362-1.1955-0.09524-0.13152-0.19048-0.2753-0.28663-0.41861a0.16781 0.16781 0 0 1-0.02358-0.08254c-0.02404-0.26305-0.04807-0.5261-0.05987-0.7769 0-0.23901 0.02404-0.47802 0.02404-0.72928v-0.21498c0-0.05987 0.01134-0.10749 0.01134-0.16781 0.01134-0.01134 0.02358-0.03538 0.03538-0.04717-0.34605 0-0.70434-0.0127-1.0504 0-0.22677 0.01134-0.34605-0.08436-0.50116-0.25171-0.45354-0.51385-0.78779-1.0994-1.1815-1.6491a73.661 73.661 0 0 0-1.1338-1.5543c-0.31067-0.41816-0.62134-0.82453-0.93111-1.2427-0.3465-0.47803-0.6803-0.95605-1.0386-1.4341-0.42995-0.57327-0.87169-1.1474-1.313-1.7207-0.20409-0.26305-0.43086-0.51385-0.65762-0.78915 0.15556 0.024491 0.29933 0.048075 0.4422 0.06032l0.57327 0.036283c0.4295 0.034922 0.85899 0.058959 1.288 0.11792 0.35829 0.048528 0.71658 0.12019 1.0867 0.1796 0.78824 0.13152 1.5638 0.34695 2.3157 0.59776 0.44174 0.14332 0.87079 0.33471 1.3016 0.51385 0.96603 0.39457 1.8853 0.8726 2.7924 1.3742 0.28573 0.15556 0.45354 0.40637 0.6676 0.63359 0.31067 0.32292 0.62134 0.64538 0.91931 0.97964 0.34559 0.39458 0.6676 0.80094 1.0023 1.2073 0.29797 0.35829 0.60774 0.71658 0.90707 1.0758 0.09524 0.10749 0.16781 0.23901 0.25035 0.35829 0.19048 0.28709 0.40591 0.56238 0.57281 0.8726 0.11883 0.22768 0.19048 0.49072 0.27394 0.74153 0.11883 0.37054 0.23856 0.72883 0.35829 1.0994 0.083 0.27484 0.1542 0.56238 0.21407 0.84811 0.04807 0.19184 0.03628 0.39458 0.09524 0.58506 0.07257 0.25216 0 0.5261 0.07257 0.77781 0.01134 0.02404 0.02268 0.05987 0.03538 0.0839 0.04762 0.04717 0.08345 0.09524 0.01179 0.1669-0.01134 0.01179-0.01134 0.05896 0 0.09524 0.02449-0.02358 0.03628-0.04762 0.06032-0.08345 0 0.02404 0.01134 0.03628 0.01134 0.04762 0 0.04717-0.01225 0.09524 0 0.14286 0 0.02358 0.02358 0.05896 0.03538 0.08345 0.02404-0.02449 0.04762-0.03628 0.09524-0.07257 0.10749 0.40682 0.11973 0.81319 0.11973 1.2313 0 0.39458 0.0712 0.78915-0.09524 1.1715 0.03538-0.13152-0.04807-0.25171-0.01225-0.37099z" fill="#dd3a0a" style="fill-rule:evenodd;stroke-width:.45353"/>
	<path d="m33.246 27.924c0.01134 0 0.02358 0.01225 0.02358 0.01225l-0.01225-0.01361c0-0.01134 0-0.01134-0.01179 0zm1.8853 11.808c-0.13152 0.09524-0.26305 0.17915-0.42995 0.21498-0.0127-0.01179-0.0127-0.02404-0.02449-0.03628 0.13152-0.08345 0.27439-0.1669 0.40591-0.2508 0.01225 0.02268 0.03628 0.04717 0.04808 0.0712zm-22.378-16.195c0.13152-0.16645 0.26305-0.3338 0.40546-0.50116 0.01134 0.01179 0.10658 0.03628 0.11883 0.04762-0.13152 0.16781-0.31067 0.39458-0.44174 0.57372-0.02449-0.02404-0.06032-0.10749-0.0839-0.11973zm-3.3902 5.8574c-0.095242-0.20318-0.19048-0.41861-0.28573-0.62134a0.41272 0.41272 0 0 1 0.10703-0.04808c0.13152 0.19048 0.19048 0.41725 0.28663 0.62134 0 0-0.095242 0.04762-0.10749 0.04762zm3.0441-5.7372c-0.07166 0.10794-0.14332 0.22767-0.21498 0.33562-0.01179-0.0127-0.14332 0.04717-0.15511 0.03538 0.07166-0.10749 0.25035-0.29933 0.32201-0.40637 0.01225 0.01179 0.02404 0.02404 0.04807 0.03628zm21.448 16.565c0.01134 0 0.01134-0.01179 0.02358-0.01179 0.08345 0.01179 0.17869 0.02358 0.27439 0.02358-0.15602 0.10749-0.25171 0.09524-0.29933-0.01179zm-21.425-16.063c0.0127-0.03628 0.03628-0.07166 0.06032-0.10749 0.02358 0 0.05896-0.01225 0.05896-0.01225 0.04853-0.08345 0.04853-0.14332 0.09615-0.21498-0.01179-0.01179-0.02404-0.01179-0.03628-0.02404-0.07121 0.04898-0.14286 0.10885-0.21452 0.15647 0.02404 0.02358 0.02404 0.03628 0.02404 0.05987-0.09524-0.01225-0.13152 0.03628-0.17915 0.1669-0.01179 0.03628-0.07166 0.04808-0.13152 0.09524-0.01179 0.02449-0.02358 0.08436-0.04762 0.14377l0.01225 0.0127c-0.02404 0.02404-0.05987 0.03628-0.05987 0.03628-0.07166 0.0712-0.15511 0.13152-0.22677 0.20273-0.01179 0.03628-0.02358 0.07166-0.02358 0.10749 0.0839-0.08345 0.22677-0.23901 0.33426-0.33471l0.01225 0.01225c0.04762-0.07166 0.08345-0.14332 0.13152-0.21498 0.01134 0.01179 0.01134 0.02358 0.02358 0.03628-0.03628 0.09524-0.07166 0.20228-0.10749 0.29797-0.02494 0.01179-0.06077 0.03628-0.06077 0.02404-0.04762 0.03628-0.08345 0.08345-0.13152 0.11928l-0.21452 0.14332c-0.11928 0.10749-0.23856 0.20273-0.37008 0.31067-0.08345 0.13152-0.1669 0.2508-0.26305 0.40637 0.14377-0.03628 0.1796 0.02404 0.16781 0.14377 0.1669 0.02358 0.17915-0.10749 0.22677-0.20318 0.01179-0.02449 0.02404-0.07257 0.04762-0.08436 0.10749-0.09524 0.22677-0.17869 0.34605-0.27439 0.02404-0.02404 0.02404-0.07257 0.02404-0.10794 0-0.01179-0.06032-0.01179-0.09615-0.02404 0.10749-0.11973 0.26305-0.32201 0.37008-0.45353 0.05987-0.03628 0.11928-0.08436 0.11928-0.12019-0.01179-0.13152 0.07166-0.1669 0.16781-0.21498-0.04807-0.03628-0.06032-0.0712-0.06032-0.083z" fill="#dd3735" style="fill-rule:evenodd;stroke-width:.45353"/>
	<path d="m12.669 24.028c-0.04762 0.08345-0.09524 0.15511-0.14286 0.23901l-0.07166-0.03628c-0.04762 0.27439-0.21498 0.5134-0.38188 0.56102 0.04762 0.02404 0.09524 0.04808 0.13152 0.03628 0.03538-0.01225 0.05896-0.07256 0.083-0.10794l0.32201-0.46623 0.10794-0.1796-0.04762-0.04762zm-3.9739 5.2465c0.059867 0 0.11973 0.01179 0.19048 0.01179 0-0.04762 0.06032-0.03628 0.06032-0.08345h0.036283c0 0.05987 0.011792 0.10749 0.011792 0.16781h-0.25035c-0.012245-0.01225-0.059867-0.08436-0.048075-0.09615zm-0.095242-0.54968c-0.036283-0.03628-0.095242-0.07166-0.095242-0.10749-0.012245-0.04717 0.023584-0.10658 0.05896-0.16645 0.024491 0.08345 0.036283 0.15511 0.059867 0.23901-0.012245 0.01134-0.024037 0.02358-0.024037 0.03538zm0.29843-0.76511c0.047621 0.12064 0.095242 0.25216 0.14332 0.3719a0.36192 0.36192 0 0 0-0.095242 0.04762c-0.047622-0.11973-0.10749-0.25126-0.15511-0.37054a0.2957 0.2957 0 0 1 0.10749-0.04808zm26.568 11.426c0.05896-0.02358 0.13062-0.03628 0.22677-0.05896-0.10794 0.083-0.19139 0.14286-0.26305 0.21452-0.01225-0.01179-0.02404-0.02404-0.03628-0.02404 0.02404-0.04762 0.04807-0.08345 0.07257-0.13152zm-14.67-25.253c0.0712-0.04808 0.13152-0.0839 0.20273-0.13152l0.02358 0.02358c-0.07257 0.09524-0.13152 0.19048-0.21543 0.31067-0.01179-0.083-0.01179-0.13152-0.02404-0.19048-0.01179 0 0 0 0.01225-0.01179zm3.4968 6.047c0.10749-0.04808 0.21498-0.09524 0.34605-0.15556-0.01179 0.07166-0.01179 0.11973-0.01179 0.16781a0.42043 0.42043 0 0 0-0.11973-0.02449c-0.07166 0.01225-0.20318 0.10794-0.26305 0.11973-0.01134 0 0.04807-0.09524 0.04807-0.10749zm8.9528 10.135c0.02358 0.11928 0.25035 0.17915 0.02358 0.29842 0.03628 0.02495 0.0712 0.03628 0.10703 0.06077a0.090707 0.090707 0 0 1-0.02358 0.04808c-0.02404 0.01134-0.07166 0.03537-0.09524 0.02268-0.01225 0-0.03628-0.04717-0.03628-0.0712 0-0.10749 0.01225-0.21498 0.02404-0.35829z" fill="#dd3735" style="fill-rule:evenodd;stroke-width:.45353"/>
</svg>
