<svg viewBox="0 0 50 50" xmlns="http://www.w3.org/2000/svg">
	<defs>
		<linearGradient id="SVGID_1_" x1="95.267" x2="26.7" y1="91.926" y2="30.68" gradientTransform="matrix(.33333 0 0 .33334 3.6659 3.6664)" gradientUnits="userSpaceOnUse">
			<stop style="stop-color:#A9C8FF" offset="0"/>
			<stop style="stop-color:#C7E6FF" offset="1"/>
		</linearGradient>
		<linearGradient id="SVGID_2_" x1="26.585" x2="93.585" y1="30.778" y2="90.278" gradientUnits="userSpaceOnUse">
			<stop style="stop-color:#2D4664" offset="0"/>
			<stop style="stop-color:#29405B" offset=".1689"/>
			<stop style="stop-color:#1E2F43" offset=".4445"/>
			<stop style="stop-color:#0C131B" offset=".7902"/>
			<stop offset="1"/>
		</linearGradient>
	</defs>
	<path d="m6.6769 40c-0.54433 0-1.0153-0.21267-1.326-0.59934-0.31733-0.395-0.42633-0.93801-0.29867-1.49l5.9953-25.97c0.25133-1.088 1.3057-1.9403 2.4013-1.9403h29.874c0.54466 0 1.0157 0.21267 1.326 0.59934 0.31733 0.39467 0.42633 0.93801 0.29867 1.49l-5.9953 25.97c-0.251 1.088-1.3057 1.9407-2.401 1.9407h-29.875z" style="clip-rule:evenodd;fill-rule:evenodd;fill:url(#SVGID_1_);opacity:.8;stroke-width:.33333"/>
	<g transform="matrix(.33333 0 0 .33334 3.6659 3.6664)">
		<path d="m118.5 20h-88.866c-2.769 0-5.53 2.259-6.168 5.045l-17.834 77.91c-0.637 2.787 1.09 5.045 3.859 5.045h88.865c2.769 0 5.53-2.258 6.168-5.045l17.834-77.911c0.638-2.785-1.09-5.044-3.858-5.044z" style="clip-rule:evenodd;fill-rule:evenodd;fill:url(#SVGID_2_)"/>
	</g>
	<path d="m25.054 32.853h7.2043c0.83766 0 1.5167 0.70834 1.5167 1.582 0 0.87367-0.679 1.5823-1.5167 1.5823h-7.2043c-0.83766 0-1.5167-0.70834-1.5167-1.5823 0-0.87367 0.679-1.582 1.5167-1.582z" style="clip-rule:evenodd;fill-rule:evenodd;fill:#2c5591;stroke-width:.33333"/>
	<path d="m29.727 25.818c-0.12401 0.24967-0.38133 0.525-0.83633 0.84467l-13.371 9.6031c-0.73 0.53034-1.778 0.33367-2.3403-0.43967-0.56233-0.77334-0.42666-1.83 0.30333-2.3607l12.058-8.7314v-0.17934l-7.576-8.0594c-0.618-0.65734-0.55366-1.7203 0.14367-2.3747 0.69733-0.654 1.7633-0.65134 2.3813 6e-3l9.0903 9.6707c0.516 0.549 0.55433 1.3803 0.14734 2.0207z" style="clip-rule:evenodd;fill-rule:evenodd;fill:#2c5591;stroke-width:.33333"/>
	<path d="m29.394 25.485c-0.124 0.24967-0.38133 0.525-0.83633 0.84467l-13.371 9.6031c-0.73 0.53034-1.778 0.33367-2.3403-0.43967-0.56233-0.77334-0.42666-1.83 0.30333-2.3607l12.058-8.7314v-0.17933l-7.576-8.0594c-0.618-0.65734-0.55366-1.7203 0.14366-2.3747 0.69733-0.654 1.7633-0.65134 2.3813 6e-3l9.0903 9.6707c0.516 0.549 0.55433 1.3803 0.14734 2.0207z" style="clip-rule:evenodd;fill-rule:evenodd;fill:#fff;stroke-width:.33333"/>
	<path d="m24.849 32.667h7.2043c0.83766 0 1.5167 0.67167 1.5167 1.5s-0.679 1.5-1.5167 1.5h-7.2043c-0.83766 0-1.5167-0.67167-1.5167-1.5s0.679-1.5 1.5167-1.5z" style="clip-rule:evenodd;fill-rule:evenodd;fill:#fff;stroke-width:.33333"/>
</svg>
