<svg viewBox="0 0 50 50" xmlns="http://www.w3.org/2000/svg">
	<style type="text/css">.st0{fill:#C1272D;}
	.st1{fill:#EFCCA3;}
	.st2{fill:#ED1C24;}
	.st3{fill:#CCAC8D;}
	.st4{fill:#FFFFFF;}
	.st5{fill:#FF931E;}
	.st6{fill:#FFB81E;}
	.st7{fill:#56332B;}
	.st8{fill:#442823;}
	.st9{fill:#7F4A41;}
	.st10{fill:#331712;}
	.st11{fill:#FFCC66;}
	.st12{fill:#CCCCCC;}
	.st13{fill:#B3B3B3;}
	.st14{fill:#989898;}
	.st15{fill:#323232;}
	.st16{fill:#1E1E1E;}
	.st17{fill:#4C4C4C;}
	.st18{fill:#E6E6E6;}
	.st19{fill:#606060;}</style>
	<path class="st1" d="m39.344 20.077c-0.06648-1.4626 0.13296-2.759-0.53186-3.856-1.5956-2.7258-5.5845-4.3214-13.562-4.3214v0.23269h-0.16621 0.16621v-0.23269c-7.9779 0-12.166 1.5956-13.762 4.3546-0.63158 1.1302-0.5651 2.3934-0.66482 3.856-0.06648 1.1634-0.59834 2.3934-0.36565 3.723 0.26593 1.7285 0.36565 3.4571 0.63158 5.0527 0.19945 1.2964 1.9945 2.3934 2.1607 3.6233 0.46538 3.3906 3.989 4.9529 11.967 4.9529v0.26593h-0.19945 0.23269v-0.26593c7.9779 0 11.369-1.5623 11.801-4.9529 0.16621-1.2632 1.8283-2.3269 2.0277-3.6233 0.26593-1.5956 0.36565-3.3241 0.63158-5.0527 0.23269-1.3296-0.29917-2.5928-0.36565-3.7563z" style="stroke-width:.33241"/>
	<path class="st3" d="m25.116 21.273c1.4294 0.03324 2.4266 0.93076 3.3574 1.7618 1.097 0.964 2.9585 1.6288 3.723 2.4599s1.7618 1.6621 2.1274 2.9585c0.36565 1.2964 0.46538 2.9585 0.46538 3.3906 0 0.43214 0.23269 0.33241 0.89751 0 1.5623-0.76455 3.2909-2.8255 3.2909-2.8255-0.19945 1.2964-1.8948 2.4599-2.061 3.6898-0.3989 3.3906-3.6898 5.0194-11.834 5.0194h-0.03324 0.19945" style="stroke-width:.33241"/>
	<path class="st3" d="m30.368 18.681c0.29917 1.0305 1.3629 4.5208-0.69807 3.3574 0 0 0.86427 0.49862 1.3961 2.3934 0.5651 1.8948 1.928 2.1274 1.928 2.1274s2.2272 0.43214 3.8892-0.99724c1.3961-1.1967 1.6288-3.3241 1.0305-4.9529-0.59834-1.5956-1.6621-2.0942-3.2244-2.4266-1.5623-0.36565-4.687-0.66482-4.3214 0.49862z" style="stroke-width:.33241"/>
	<g transform="matrix(.33241 0 0 .33241 3.6425 3.1569)">
		<circle cx="92.3" cy="58.1" r="8.8"/>
		<circle class="st4" cx="90" cy="54.2" r="2.3"/>
	</g>
	<path class="st1" d="m29.87 22.337s2.6261 1.795 4.0554 3.5568c1.4294 1.7618 1.3961 2.0942 1.3961 2.0942l-1.0305 0.46538s-1.4626-2.759-3.2576-3.7895c-1.8283-1.0305-2.0277-1.8948-2.0277-1.8948z" style="stroke-width:.33241"/>
	<path class="st3" d="m25.216 21.273c-1.4294 0.03324-2.4931 0.93076-3.4571 1.7618-1.097 0.964-3.025 1.6288-3.7895 2.4599s-1.795 1.6621-2.1607 2.9585c-0.36565 1.2964-0.49862 2.9585-0.49862 3.3906 0 0.43214 0.06648 0.46538-0.89751 0-1.5623-0.73131-3.2909-2.8255-3.2909-2.8255 0.19945 1.2964 1.8948 2.4599 2.061 3.6898 0.46538 3.3906 3.7563 5.0194 11.9 5.0194h0.1662" style="stroke-width:.33241"/>
	<path class="st7" d="m32.928 26.891c-1.5956-1.9612-4.1552-3.7895-7.712-3.7895h-0.03324c-3.5568 0-6.1164 1.8283-7.712 3.7895-1.6621 2.0277-1.5291 2.8255-1.5291 4.7535 0 6.9807 2.4599 4.9862 4.0887 5.8505 1.6621 0.83103 3.3906 0.5651 5.1524 0.5651h0.03324c1.795 0 3.4903 0.23269 5.1524-0.59834 1.6288-0.83103 4.0887 1.2299 4.0887-5.7507 0.03324-1.928 0.13296-2.7923-1.5291-4.82z" style="stroke-width:.33241"/>
	<path class="st8" d="m25.05 24.83s-0.23269 3.2244-0.69807 3.856l0.86427-0.19945z" style="stroke-width:.33241"/>
	<path class="st8" d="m25.283 24.83s0.23269 3.2244 0.69807 3.856l-0.86427-0.19945z" style="stroke-width:.33241"/>
	<path class="st7" d="m22.49 24.066c-0.33241-0.76455 0.86427-1.9945 2.759-2.0277 1.8948 0 3.0914 1.2299 2.759 2.0277-0.33241 0.79779-1.5291 1.0305-2.759 1.0637-1.1967-0.03324-2.4266-0.26593-2.759-1.0637z" style="stroke-width:.33241"/>
	<path d="m25.249 24.83c0-0.13296 1.1302-0.16621 1.7285-0.5651 0 0-1.2299 0.3989-1.4959 0.23269-0.26593-0.13296-0.33241-0.53186-0.33241-0.53186s-0.09972 0.3989-0.29917 0.53186c-0.23269 0.13296-1.6288-0.23269-1.6288-0.23269s1.8615 0.46538 1.8615 0.5651c0 0.09972-0.03324 0.43214-0.03324 0.66482 0 0.83103 0 2.892 0.13296 3.0582 0.19945 0.29917 0.13296-2.2272 0.13296-3.0582-0.03324-0.26593-0.03324-0.53186-0.06648-0.66482z" style="stroke-width:.33241"/>
	<path class="st9" d="m25.316 29.284c0.5651 0 1.5623 0.3989 2.4599 1.0305-0.86427-0.964-1.8948-1.6288-2.4599-1.6288-0.59834 0-1.8615 0.73131-2.759 1.795 0.93076-0.73131 2.1274-1.1967 2.759-1.1967z" style="stroke-width:.33241"/>
	<path class="st8" d="m25.083 35.168c-1.2632 0-2.4931-0.3989-3.6233-0.69807-0.23269-0.06648-0.46538 0.09972-0.69807 0.03324-2.0942-0.66482-3.7895-1.795-4.82-3.2244v0.33241c0 6.9807 2.4599 5.0194 4.0887 5.8505 1.6621 0.83103 3.3906 0.5651 5.1524 0.5651h0.03324c1.795 0 3.4903 0.23269 5.1524-0.59834 1.6288-0.83103 4.0887 1.1967 4.0887-5.784 0-0.26593 0-0.53186 0.03324-0.76455-0.964 1.5623-2.7258 2.7923-4.9197 3.5236-0.19945 0.06648-0.66482-0.09972-0.86427-0.06648-1.1967 0.3989-2.2604 0.83103-3.6233 0.83103z" style="stroke-width:.33241"/>
	<path class="st8" d="m21.925 31.412s-0.83103 2.4931-0.26593 3.5901l-0.76455-0.33241s0.5651-2.5263 1.0305-3.2576z" style="stroke-width:.33241"/>
	<path class="st8" d="m28.507 31.412s0.83103 2.4931 0.26593 3.5901l0.76455-0.33241s-0.59834-2.5263-1.0305-3.2576z" style="stroke-width:.33241"/>
	<path class="st3" d="m19.798 18.681c-0.29917 1.0305-1.3629 4.5208 0.69807 3.3574 0 0-0.86427 0.49862-1.3961 2.3934-0.53186 1.8948-1.928 2.1274-1.928 2.1274s-2.2272 0.43214-3.8892-0.99724c-1.3961-1.1967-1.6288-3.3241-1.0305-4.9529 0.59834-1.6288 1.6621-2.0942 3.2244-2.4266 1.5623-0.36565 4.6538-0.66482 4.3214 0.49862z" style="stroke-width:.33241"/>
	<path d="m25.216 28.686c0.89751 0 3.6898 1.928 3.723 4.2881v-0.13296c0-2.4599-2.2604-4.4211-3.723-4.4211s-3.723 1.9945-3.723 4.4211v0.13296c0.03324-2.3601 2.8255-4.2881 3.723-4.2881z" style="stroke-width:.33241"/>
	<g transform="matrix(.33241 0 0 .33241 3.6425 3.1569)">
		<ellipse class="st10" transform="matrix(.9683 -.2497 .2497 .9683 -13.234 18.606)" cx="66.7" cy="61.5" rx=".8" ry="1.5"/>
		<ellipse class="st10" transform="matrix(.9551 .2963 -.2963 .9551 21.012 -15.721)" cx="62.4" cy="61.5" rx=".8" ry="1.5"/>
		<circle cx="37.2" cy="58.1" r="8.8"/>
		<circle class="st4" cx="39.5" cy="54.2" r="2.3"/>
		<path class="st9" d="m67.5 58.2c0-0.1-2.3 1-2.9 1.1-0.6-0.1-2.9-1.2-2.9-1.1h2.9 2.9z"/>
	</g>
	<path class="st1" d="m20.263 22.337s-2.6261 1.795-4.0554 3.5568c-1.4294 1.7618-1.3961 2.0942-1.3961 2.0942l1.0305 0.46538s1.4626-2.759 3.2576-3.7895c1.795-1.0305 2.0277-1.8948 2.0277-1.8948z" style="stroke-width:.33241"/>
	<path class="st3" d="m14.512 17.018s-0.89751 2.4599-2.892 3.4903c0 0 3.1247-0.36565 2.892-3.4903z" style="stroke-width:.33241"/>
	<path class="st3" d="m35.488 17.018s0.89751 2.4599 2.892 3.4903c0 0-3.1247-0.36565-2.892-3.4903z" style="stroke-width:.33241"/>
	<path class="st3" d="m29.803 21.606s-1.9612-2.061-4.5873-2.1274h0.03324 0.03324c-2.6593 0.06648-4.5873 2.1274-4.5873 2.1274 2.2936-1.5956 4.2549-1.5623 4.5873-1.5623-0.03324 0 2.2272-0.03324 4.5208 1.5623z" style="stroke-width:.33241"/>
	<path class="st3" d="m27.51 17.284s-0.99724-1.3961-2.3269-1.4294h0.03324 0.03324c-0.99724 0.03324-2.2936 1.4294-2.2936 1.4294 1.1302-1.097 2.2936-1.0637 2.2936-1.0637s1.097-0.03324 2.2604 1.0637z" style="stroke-width:.33241"/>
	<path class="st3" d="m16.008 27.489s-1.5623 0.76455-2.6925 0.29917h-0.03324c-0.99724-0.5651-1.4959-2.2604-1.4959-2.2604s0.99724 2.9917 4.2216 1.9612z" style="stroke-width:.33241"/>
	<path class="st3" d="m34.224 27.489s1.5623 0.76455 2.6925 0.29917c1.3296-0.5651 1.5291-2.2604 1.5291-2.2604s-0.99724 2.9917-4.2216 1.9612z" style="stroke-width:.33241"/>
	<g transform="matrix(.33241 0 0 .33241 3.6425 3.1569)">
		<path class="st3" d="m42.6 41.2c2.6-0.5 6.9-0.6 10.3 0.5 4.3 1.5 0.8 7 1.7 7.3s2.1-3.8 10.1-3.4c8.1 0.4 9 4 10.1 3.4s-1.1-10 11-7.8c0 0-12.7-3.4-12.1 5.8 0 0-7.3-5.6-17.5-0.6 0.1 0 2.7-8.6-13.6-5.2z"/>
	</g>
	<path class="st3" d="m32.529 16.852c0.06648 0 0.09972 0.03324 0.13296 0.03324 0.03324 0-0.03324-0.03324-0.13296-0.03324z" style="stroke-width:.33241"/>
	<path class="st3" d="m32.529 16.852z" style="stroke-width:.33241"/>
	<path class="st3" d="m16.64 12.764s-3.5901 4.5208-4.1219 6.2494c-0.53186 1.7618-0.93076 8.9751-1.3961 10.006l-1.6621-7.1136 3.0582-7.4128z" style="stroke-width:.33241"/>
	<path class="st3" d="m33.526 12.764s3.5901 4.5208 4.1219 6.2494c0.53186 1.7618 0.93076 8.9751 1.3961 10.006l1.6621-7.1136-3.0582-7.4128z" style="stroke-width:.33241"/>
	<path class="st7" d="m33.36 12.764s3.856 3.2244 4.9862 6.9474 0.66482 8.2438 1.5291 8.8089c1.2299 0.79779 2.6261-3.9557 3.0914-4.4543 0.73131-0.79779 3.1579-2.8255 3.3241-3.1912 0.16621-0.36565-4.9197-5.9169-7.1469-7.0139-2.6925-1.2632-6.0167-1.3629-5.784-1.097z" style="stroke-width:.33241"/>
	<path class="st8" d="m36.651 14.758s4.5541 5.8172 4.4876 13.064l1.8283-3.723c-0.03324 0-1.6288-4.7535-6.3158-9.3408z" style="stroke-width:.33241"/>
	<path class="st7" d="m16.64 12.764s-3.856 3.2244-4.9862 6.9474c-1.1302 3.723-0.66482 8.2438-1.5291 8.8089-1.2299 0.79779-2.6261-3.9557-3.0914-4.4543-0.73131-0.79779-3.1579-2.8255-3.3241-3.1912s4.9197-5.9169 7.1469-7.0139c2.6925-1.2632 6.0167-1.3629 5.784-1.097z" style="stroke-width:.33241"/>
	<path class="st8" d="m13.349 14.758s-4.5541 5.8172-4.4876 13.064l-1.795-3.723s1.5956-4.7535 6.2826-9.3408z" style="stroke-width:.33241"/>
	<path class="st3" d="m10.889 27.955s0.33241 1.795 0.86427 2.3601c0.53186 0.5651 0.16621-0.43214 0.16621-0.43214s-0.5651-0.29917-0.46538-2.5928c0.09972-2.2936-0.5651 0.66482-0.5651 0.66482z" style="stroke-width:.33241"/>
	<path class="st3" d="m39.244 27.955s-0.33241 1.795-0.86427 2.3601c-0.53186 0.5651-0.16621-0.43214-0.16621-0.43214s0.5651-0.29917 0.46538-2.5928c-0.09972-2.2936 0.5651 0.66482 0.5651 0.66482z" style="stroke-width:.33241"/>
	<g transform="matrix(.33241 0 0 .33241 3.6425 3.1569)">
		<circle class="st8" cx="54.5" cy="70.5" r=".8"/>
		<circle class="st8" cx="49.9" cy="75.3" r=".8"/>
		<circle class="st8" cx="48.4" cy="70.5" r=".8"/>
		<circle class="st8" cx="74" cy="70.5" r=".8"/>
		<circle class="st8" cx="78.6" cy="75.3" r=".8"/>
		<circle class="st8" cx="80.1" cy="70.5" r=".8"/>
	</g>
</svg>
