<svg viewBox="0 0 50 50" xmlns="http://www.w3.org/2000/svg">
	<defs>
		<linearGradient id="linearGradient11307" x1="89.137" x2="147.78" y1="111.92" y2="168.1" gradientTransform="matrix(.32018 0 0 .32018 -7.0657 -14.188)" gradientUnits="userSpaceOnUse">
			<stop style="stop-color:#ffe052" offset="0"/>
			<stop style="stop-color:#ffc331" offset="1"/>
		</linearGradient>
		<linearGradient id="linearGradient9521" x1="55.549" x2="110.15" y1="77.07" y2="131.85" gradientTransform="matrix(.32018 0 0 .32018 -7.0657 -14.188)" gradientUnits="userSpaceOnUse">
			<stop style="stop-color:#387eb8" offset="0"/>
			<stop style="stop-color:#366994" offset="1"/>
		</linearGradient>
	</defs>
	<path d="m24.873 7.4146c-8.9753 0-8.4148 3.8922-8.4148 3.8922l0.01 4.0323h8.5649v1.2107h-11.967s-5.7433-0.65134-5.7433 8.4048c0 9.0561 5.0129 8.735 5.0129 8.735h2.9917v-4.2024s-0.16126-5.0129 4.9328-5.0129h8.4949s4.7727 0.07715 4.7727-4.6126v-7.7544s0.72463-4.6927-8.6549-4.6927zm-4.7227 2.7116c0.85214 0 1.5409 0.68874 1.5409 1.5409s-0.68874 1.5409-1.5409 1.5409-1.5409-0.68874-1.5409-1.5409 0.68874-1.5409 1.5409-1.5409z" style="color:#000000;fill:url(#linearGradient9521)"/>
	<path d="m25.127 42.585c8.9753 0 8.4148-3.8922 8.4148-3.8922l-0.01-4.0323h-8.5649v-1.2107h11.967s5.7433 0.65134 5.7433-8.4048c4e-6 -9.0561-5.0129-8.735-5.0129-8.735h-2.9917v4.2024s0.16126 5.0129-4.9328 5.0129h-8.4949s-4.7727-0.07715-4.7727 4.6126v7.7544s-0.72463 4.6927 8.6549 4.6927zm4.7227-2.7116c-0.85214 0-1.5409-0.68874-1.5409-1.5409s0.68874-1.5409 1.5409-1.5409 1.5409 0.68874 1.5409 1.5409c3e-6 0.85214-0.68874 1.5409-1.5409 1.5409z" style="color:#000000;fill:url(#linearGradient11307)"/>
</svg>
