<svg viewBox="0 0 50 50" xmlns="http://www.w3.org/2000/svg">
	<path d="m42.436 24.566-1.4842-0.91878c-0.0125-0.14457-0.02668-0.28881-0.04222-0.43237l1.2755-1.1897c0.12971-0.12093 0.18781-0.29996 0.15268-0.47324-0.03411-0.17396-0.15606-0.31718-0.32191-0.379l-1.6305-0.60971c-0.04088-0.1412-0.08378-0.28138-0.12768-0.42088l1.0171-1.4126c0.10371-0.14356 0.12498-0.33036 0.05742-0.49418-0.06756-0.16315-0.21517-0.28003-0.38981-0.30874l-1.7193-0.27969c-0.066875-0.13039-0.13646-0.25875-0.20672-0.38609l0.72253-1.5859c0.07397-0.16146 0.05877-0.34927-0.03986-0.49587-0.0983-0.14728-0.26483-0.23341-0.4425-0.22666l-1.745 0.06081c-0.09019-0.11282-0.18207-0.22463-0.27564-0.33441l0.40095-1.6998c0.04054-0.17261-0.01046-0.35333-0.13613-0.47865-0.12464-0.12498-0.3057-0.17666-0.47831-0.13613l-1.6994 0.40062c-0.11012-0.09323-0.22193-0.18545-0.33509-0.27564l0.06114-1.745c0.0068-0.17666-0.07938-0.34454-0.22666-0.4425-0.14761-0.09864-0.33441-0.1135-0.49554-0.0402l-1.5856 0.72287c-0.12802-0.07026-0.25638-0.13984-0.38609-0.20706l-0.28036-1.7197c-0.028379-0.1743-0.14525-0.32225-0.30874-0.38981-0.16315-0.067897-0.35029-0.045944-0.49385 0.057423l-1.4136 1.0171c-0.13918-0.044246-0.27902-0.086808-0.42022-0.12734l-0.60971-1.6308c-0.06181-0.16619-0.20504-0.28813-0.379-0.32259-0.17362-0.034112-0.35231 0.023651-0.4729 0.15268l-1.1897 1.2765c-0.14356-0.015881-0.28813-0.030403-0.43237-0.042222l-0.91879-1.4846c-0.09289-0.15032-0.25739-0.24186-0.4344-0.24186-0.177 0-0.3415 0.091535-0.43406 0.24186l-0.91878 1.4846c-0.14457 0.011819-0.28915 0.026341-0.43271 0.042222l-1.19-1.2765c-0.12059-0.12903-0.29962-0.1868-0.4729-0.15268-0.17396 0.034791-0.31718 0.1564-0.379 0.32259l-0.60971 1.6308c-0.1412 0.040537-0.28104 0.083438-0.42055 0.12734l-1.4133-1.0171c-0.14356-0.10371-0.3307-0.12566-0.49418-0.057423-0.16315 0.067558-0.28036 0.21551-0.30874 0.38981l-0.28036 1.7197c-0.12971 0.06722-0.25807 0.13647-0.38609 0.20706l-1.5856-0.72287c-0.16112-0.07364-0.34894-0.05844-0.49554 0.0402-0.14728 0.09796-0.23341 0.26584-0.22666 0.4425l0.06081 1.745c-0.11282 0.09019-0.22463 0.18241-0.33509 0.27564l-1.6994-0.40062c-0.17261-0.0402-0.35366 0.01114-0.47865 0.13613-0.12566 0.12532-0.17666 0.30604-0.13613 0.47865l0.40028 1.6998c-0.09289 0.11012-0.18477 0.22159-0.27496 0.33441l-1.745-0.06081c-0.17599-5e-3 -0.34421 0.07938-0.4425 0.22666-0.09864 0.1466-0.1135 0.33441-0.0402 0.49587l0.72287 1.5859c-0.07026 0.12734-0.13984 0.25571-0.20706 0.38609l-1.7193 0.27969c-0.17464 0.02838-0.32191 0.14525-0.38981 0.30874-0.067558 0.16383-0.045604 0.35062 0.057423 0.49418l1.0171 1.4126c-0.044246 0.13951-0.087147 0.27969-0.12768 0.42089l-1.6308 0.60971c-0.16552 0.06181-0.28746 0.20504-0.32191 0.379-0.034451 0.17362 0.023312 0.35231 0.15268 0.47324l1.2758 1.1897c-0.015881 0.14356-0.030063 0.28813-0.042222 0.43237l-1.4842 0.91879c-0.15032 0.09289-0.24186 0.25706-0.24186 0.4344 0 0.17734 0.091535 0.3415 0.24186 0.43406l1.4842 0.91878c0.012226 0.14457 0.026341 0.28881 0.042222 0.43237l-1.2758 1.19c-0.12937 0.12059-0.18714 0.29962-0.15268 0.4729 0.034451 0.17396 0.1564 0.31684 0.32191 0.379l1.6308 0.60971c0.040537 0.1412 0.083438 0.28138 0.12768 0.42089l-1.0171 1.413c-0.10337 0.1439-0.12532 0.3307-0.057423 0.49384 0.067897 0.16383 0.21551 0.2807 0.39015 0.30874l1.719 0.27969c0.06722 0.13039 0.13613 0.25875 0.20706 0.38677l-0.72287 1.5852c-0.07364 0.16112-0.05844 0.3486 0.0402 0.49587 0.09864 0.14761 0.26652 0.23375 0.4425 0.22666l1.7443-0.06113c0.09087 0.1135 0.18241 0.22463 0.27564 0.33509l-0.40028 1.7001c-0.04054 0.17227 0.01046 0.35231 0.13613 0.47763 0.12464 0.126 0.30604 0.17632 0.47865 0.1358l1.6994-0.40028c0.11046 0.0939 0.22227 0.18511 0.33509 0.27496l-0.06081 1.7454c-0.0068 0.17666 0.07938 0.34421 0.22666 0.44284 0.1466 0.0983 0.33441 0.11316 0.49553 0.03952l1.5856-0.72253c0.12768 0.07094 0.25605 0.13985 0.38609 0.20707l0.28036 1.7187c0.02838 0.17498 0.14525 0.32293 0.30874 0.39015 0.16315 0.0679 0.35062 0.04594 0.49418-0.05708l1.4126-1.0178c0.13951 0.04425 0.27969 0.08749 0.42089 0.12802l0.60971 1.6302c0.06181 0.16552 0.20504 0.28813 0.379 0.32191 0.17362 0.03513 0.35231-0.02297 0.4729-0.15268l1.19-1.2758c0.14356 0.01655 0.28814 0.0304 0.43271 0.04324l0.91878 1.4842c0.09255 0.14964 0.25706 0.24186 0.43406 0.24186s0.3415-0.09187 0.4344-0.24186l0.91878-1.4842c0.14457-0.01277 0.28881-0.02668 0.43237-0.04324l1.1897 1.2758c0.12059 0.12971 0.29962 0.18781 0.4729 0.15268 0.17396-0.03411 0.31718-0.1564 0.379-0.32191l0.60971-1.6302c0.1412-0.04054 0.28138-0.08376 0.42088-0.12802l1.413 1.0178c0.14356 0.10303 0.3307 0.12498 0.49385 0.05708 0.16349-0.06722 0.28036-0.21551 0.30874-0.39015l0.28037-1.7187c0.12971-0.06722 0.25807-0.13714 0.38609-0.20707l1.5856 0.72253c0.16113 0.07364 0.3486 0.05878 0.49554-0.03952 0.14728-0.09864 0.23307-0.26584 0.22666-0.44284l-0.06081-1.7454c0.11282-0.09019 0.22463-0.18106 0.33475-0.27496l1.6994 0.40028c0.17261 0.04054 0.35366-0.0098 0.47831-0.1358 0.12566-0.12532 0.17666-0.30536 0.13613-0.47763l-0.40028-1.7001c0.09323-0.11046 0.18511-0.22159 0.27496-0.33509l1.745 0.06113c0.17599 0.0071 0.34421-0.07904 0.4425-0.22666 0.09864-0.14728 0.11384-0.33475 0.03986-0.49587l-0.72253-1.5852c0.0706-0.12802 0.13985-0.25638 0.20673-0.38677l1.7193-0.27969c0.17497-0.02804 0.32225-0.14491 0.38981-0.30874 0.06756-0.16315 0.04627-0.34995-0.05742-0.49385l-1.0171-1.413c0.04392-0.13951 0.08681-0.27969 0.12768-0.42088l1.6305-0.60971c0.16585-0.06215 0.28813-0.20504 0.32191-0.379 0.03513-0.17362-0.02297-0.35231-0.15268-0.4729l-1.2755-1.19c0.01554-0.14356 0.02972-0.28813 0.04222-0.43237l1.4842-0.91879c0.15032-0.09255 0.24186-0.25706 0.24186-0.43406 0-0.177-0.09119-0.3415-0.24152-0.4344zm-9.934 12.313c-0.56681-0.12228-0.92723-0.68098-0.80563-1.2495 0.12126-0.56782 0.67963-0.92926 1.2461-0.80698 0.56681 0.12126 0.92791 0.68098 0.8063 1.2485-0.1216 0.56748-0.68031 0.92926-1.2468 0.80799zm-0.50432-3.411c-0.51716-0.1108-1.0259 0.21821-1.1367 0.73638l-0.52695 2.4591c-1.6261 0.73807-3.4319 1.1481-5.3337 1.1481-1.9453 0-3.7903-0.43034-5.4455-1.1998l-0.52661-2.4591c-0.1108-0.51749-0.6195-0.84718-1.1363-0.73604l-2.171 0.46615c-0.40298-0.4148-0.77793-0.85663-1.1225-1.3231h10.563c0.11957 0 0.1993-0.02161 0.1993-0.13039v-3.7366c0-0.10877-0.07972-0.13039-0.1993-0.13039h-3.0894v-2.3686h3.3414c0.30502 0 1.6308 0.08715 2.0548 1.7818 0.13275 0.52121 0.42426 2.2166 0.62356 2.7594 0.19862 0.6087 1.0073 1.8247 1.869 1.8247h5.2638c0.05979 0 0.12364-0.0068 0.19085-0.01891-0.36515 0.49621-0.76577 0.96574-1.1971 1.4045zm-14.61 3.3596c-0.56681 0.12228-1.1248-0.23915-1.2468-0.80698-0.12126-0.56884 0.23916-1.1272 0.80596-1.2495 0.56681-0.12126 1.1252 0.24017 1.2468 0.80799 0.12126 0.56748-0.23949 1.1269-0.80596 1.2485zm-4.0072-16.249c0.2351 0.53067-0.0041 1.1525-0.53404 1.3873-0.52999 0.23544-1.1502-0.0041-1.3853-0.53506-0.2351-0.531 0.0041-1.1519 0.53404-1.3873 0.53033-0.2351 1.1502 0.0041 1.3853 0.53506zm-1.2316 2.9195 2.2615-1.0049c0.48304-0.2145 0.70125-0.78063 0.48675-1.2647l-0.46581-1.0532h1.8318v8.2569h-3.6957c-0.32056-1.1269-0.4925-2.3162-0.4925-3.5454 0-0.46919 0.02534-0.93298 0.07397-1.3886zm9.9242-0.80191v-2.4338h4.3622c0.2253 0 1.591 0.26044 1.591 1.2816 0 0.84785-1.0475 1.1519-1.9088 1.1519h-4.0443zm15.853 2.1906c0 0.32292-0.01182 0.64247-0.03547 0.95966h-1.3262c-0.13275 0-0.18612 0.08715-0.18612 0.2172v0.60903c0 1.4336-0.80833 1.7454-1.5167 1.8247-0.67456 0.07601-1.4224-0.28239-1.5146-0.69517-0.39792-2.2382-1.061-2.7162-2.1081-3.5421 1.2995-0.82522 2.6516-2.0426 2.6516-3.6721 0-1.7595-1.2062-2.8678-2.0284-3.4113-1.1536-0.76036-2.4307-0.9127-2.7753-0.9127h-13.715c1.8599-2.0757 4.3804-3.5461 7.2314-4.0812l1.6167 1.696c0.36549 0.38272 0.9708 0.3969 1.3532 0.03108l1.8089-1.7302c3.7903 0.70564 6.9993 3.0651 8.8487 6.3021l-1.2383 2.7969c-0.21382 0.48405 0.0043 1.0502 0.48709 1.2647l2.3841 1.059c0.04122 0.42325 0.06283 0.85089 0.06283 1.2843zm-13.706-14.147c0.41886-0.40129 1.0833-0.38542 1.4842 0.03411 0.40028 0.42055 0.38508 1.0857-0.03479 1.4866-0.41886 0.40129-1.0833 0.38576-1.4842-0.03445-0.39994-0.41987-0.38474-1.085 0.03479-1.4863zm12.289 9.8894c0.23476-0.53067 0.85494-0.77016 1.3849-0.53472 0.52999 0.2351 0.76914 0.85663 0.53404 1.3873-0.23476 0.531-0.85494 0.7705-1.3853 0.53506-0.52931-0.2351-0.76847-0.8563-0.53371-1.3876z" style="stroke-width:.33779"/>
</svg>
