<svg viewBox="0 0 50 50" xmlns="http://www.w3.org/2000/svg">
	<path d="m39.437 27.226c-1.3989 8e-3 -2.6102 0.34386-3.6262 0.84402-0.37512-0.74243-0.75025-1.3911-0.81278-1.8756-0.07034-0.56269-0.1563-0.90655-0.07034-1.5787 0.08597-0.6721 0.47672-1.6255 0.47672-1.7037-8e-3 -0.07034-0.08597-0.4142-0.89092-0.42202-0.80496-8e-3 -1.5005 0.1563-1.5787 0.36731-0.07818 0.21101-0.23445 0.69555-0.33605 1.1957-0.14067 0.73461-1.6099 3.337-2.4461 4.7047-0.27353-0.53143-0.50798-1.0003-0.55487-1.3755-0.07034-0.56268-0.1563-0.90655-0.07034-1.5786 0.08597-0.6721 0.47672-1.6255 0.47672-1.7037-8e-3 -0.07034-0.08597-0.4142-0.89091-0.42202-0.80496-8e-3 -1.5005 0.1563-1.5787 0.36731-0.07818 0.211-0.16412 0.71118-0.33605 1.1957-0.16412 0.48453-2.1179 4.8297-2.6259 5.9629-0.2579 0.57832-0.48454 1.0394-0.64866 1.352-0.16411 0.3126-8e-3 0.02345-0.02345 0.05473-0.14067 0.26571-0.21883 0.4142-0.21883 0.4142v8e-3c-0.10941 0.19538-0.22663 0.38294-0.28134 0.38294-0.03905 0-0.11723-0.52362 0.0156-1.2426 0.28916-1.5083 0.99252-3.8607 0.98471-3.9466 0-0.03905 0.13286-0.45327-0.45328-0.66428-0.5705-0.211-0.77369 0.14068-0.82059 0.14068-0.04689 0-0.08596 0.12504-0.08596 0.12504s0.63303-2.6493-1.2113-2.6493c-1.1566 0-2.7509 1.2582-3.5402 2.407-0.50016 0.27353-1.563 0.85185-2.6884 1.4692-0.42983 0.23446-0.8753 0.48454-1.2973 0.71117l-0.08596-0.09378c-2.2351-2.3836-6.3693-4.0717-6.1974-7.2759 0.062495-1.1644 0.46891-4.2358 7.9401-7.9558 6.1192-3.0479 11.019-2.2117 11.871-0.35168 1.2113 2.6571-2.6181 7.5963-8.9795 8.3074-2.4227 0.27353-3.6965-0.66428-4.017-1.016-0.33605-0.36731-0.38294-0.38294-0.50798-0.3126-0.20319 0.10941-0.07818 0.43764 0 0.63303 0.18757 0.49234 0.96907 1.3676 2.2976 1.8053 1.1645 0.38294 4.0092 0.59395 7.4478-0.73462 3.8528-1.4927 6.8617-5.6347 5.9785-9.0968-0.89873-3.5246-6.7444-4.6812-12.27-2.7197-3.2902 1.1723-6.8538 3.001-9.4172 5.4002-3.0479 2.8447-3.5324 5.3299-3.3292 6.3615 0.71117 3.6809 5.7832 6.0801 7.8151 7.8542-0.1016 0.05473-0.19538 0.10941-0.28135 0.1563-1.016 0.50016-4.8844 2.5243-5.8535 4.6656-1.0941 2.4227 0.17193 4.1655 1.016 4.3999 2.6102 0.7268 5.283-0.57832 6.7288-2.7275 1.438-2.1492 1.266-4.9391 0.60176-6.213l-0.02345-0.04689 0.79714-0.46891c0.5158-0.30479 1.0238-0.58613 1.4692-0.8284-0.25008 0.67991-0.42983 1.4849-0.52362 2.6571-0.10941 1.3755 0.45328 3.1573 1.1957 3.8607 0.32824 0.30479 0.71899 0.3126 0.96126 0.3126 0.85966 0 1.2504-0.71117 1.6802-1.563 0.53143-1.0394 1.0003-2.2429 1.0003-2.2429s-0.58613 3.2589 1.016 3.2589c0.58613 0 1.1723-0.75806 1.438-1.1488v8e-3s0.0156-0.02345 0.04689-0.07818c0.0625-0.09378 0.09378-0.14848 0.09378-0.14848v-0.0156c0.23446-0.40639 0.75807-1.3364 1.5396-2.876 1.0082-1.985 1.9772-4.4702 1.9772-4.4702s0.09378 0.60957 0.38294 1.6099c0.17193 0.59395 0.54705 1.2426 0.83621 1.8756-0.23445 0.32823-0.37512 0.5158-0.37512 0.5158l8e-3 8e-3c-0.18757 0.25008-0.39858 0.5158-0.6174 0.78151-0.79714 0.95344-1.7506 2.0397-1.8756 2.3523-0.14848 0.36731-0.11723 0.64084 0.17193 0.85966 0.21101 0.1563 0.58614 0.18757 0.98471 0.1563 0.71898-0.04689 1.2192-0.22664 1.4692-0.33605 0.39075-0.14067 0.83621-0.35168 1.266-0.66428 0.78151-0.57832 1.2582-1.3989 1.2113-2.493-0.02345-0.60176-0.21882-1.1957-0.46109-1.7584 0.07034-0.1016 0.14067-0.20319 0.211-0.3126 1.2348-1.8053 2.1882-3.7903 2.1882-3.7903s0.09378 0.60957 0.38293 1.6099c0.14849 0.50798 0.44546 1.0629 0.71117 1.6099-1.1566 0.94562-1.8834 2.0397-2.1335 2.7587-0.46109 1.3286-0.10159 1.9303 0.57832 2.071 0.3048 0.06249 0.74244-0.07818 1.0707-0.21882 0.40639-0.13286 0.89874-0.3595 1.352-0.69555 0.78151-0.57832 1.5318-1.3833 1.4927-2.4696-0.02345-0.50017-0.1563-0.99252-0.33605-1.4614 0.98471-0.40638 2.2586-0.64084 3.8763-0.44546 3.4777 0.40639 4.1655 2.579 4.0326 3.4855-0.13286 0.90656-0.85967 1.4067-1.1019 1.563-0.24227 0.14848-0.32042 0.20319-0.29697 0.3126 0.03129 0.16411 0.14067 0.1563 0.35168 0.12504 0.28916-0.04689 1.8287-0.74243 1.8912-2.4149 0.09378-2.1492-1.946-4.4937-5.5643-4.4702zm-26.821 9.0421c-1.1488 1.2582-2.7665 1.735-3.4543 1.3286-0.74244-0.42983-0.45328-2.282 0.96125-3.6184 0.85967-0.81277 1.9772-1.563 2.7118-2.0241 0.16412-0.10159 0.4142-0.25008 0.71117-0.42982 0.04689-0.03129 0.07818-0.04689 0.07818-0.04689 0.05473-0.03129 0.11722-0.07034 0.17975-0.10941 0.52361 1.9069 0.02345 3.5793-1.1879 4.9001zm8.4012-5.7128c-0.39857 0.97689-1.2426 3.4855-1.7506 3.3449-0.43764-0.11723-0.70336-2.0163-0.08597-3.8919 0.3126-0.94562 0.97689-2.071 1.3676-2.5086 0.63302-0.70336 1.3207-0.93781 1.4927-0.64866 0.20319 0.37513-0.77369 3.0948-1.0238 3.7044zm6.932 3.3136c-0.17193 0.08597-0.32823 0.14848-0.39857 0.1016-0.05473-0.03129 0.07034-0.14849 0.07034-0.14849s0.86748-0.93 1.2113-1.3598c0.19538-0.25008 0.42983-0.53924 0.67992-0.86748v0.09378c0 1.1254-1.0785 1.8756-1.563 2.1804zm5.3455-1.2192c-0.12504-0.09378-0.10941-0.38294 0.3126-1.2895 0.16412-0.3595 0.53924-0.96125 1.1879-1.5318 0.07818 0.23446 0.12505 0.46109 0.11723 0.6721-8e-3 1.4067-1.0081 1.9303-1.6177 2.1492z" fill="#cf649a" style="stroke-width:.078151"/>
</svg>
