<svg viewBox="0 0 50 50" xmlns="http://www.w3.org/2000/svg">
	<rect x="7.3225" y="7.3225" width="35.355" height="35.355" rx="3.4526" fill="#3178c6" style="stroke-width:.069053"/>
	<rect x="7.3225" y="7.3225" width="35.355" height="35.355" rx="3.4526" fill="#3178c6" style="stroke-width:.069053"/>
	<path d="m29.208 35.456v3.4568c0.56195 0.28809 1.2266 0.50408 1.9939 0.64813s1.576 0.21607 2.4262 0.21607c0.82856 0 1.6156-0.0792 2.3613-0.23768 0.7457-0.15841 1.3996-0.4195 1.9615-0.7832 0.56195-0.36363 1.0069-0.83899 1.3347-1.4259 0.32779-0.58695 0.49172-1.3125 0.49172-2.1767 0-0.62658-0.09363-1.1757-0.28098-1.6474-0.18734-0.4717-0.45748-0.8912-0.81054-1.2585-0.353-0.36729-0.77629-0.69681-1.2698-0.98849s-1.0501-0.56713-1.6697-0.82635c-0.45388-0.18727-0.86095-0.36909-1.2212-0.54552-0.36025-0.1765-0.66643-0.35652-0.91861-0.54013-0.25218-0.18368-0.4467-0.37813-0.58356-0.58336-0.13686-0.20529-0.20536-0.43752-0.20536-0.69681 0-0.23761 0.06125-0.45188 0.18375-0.64274 0.1225-0.19086 0.29541-0.35465 0.51872-0.49152 0.22339-0.13679 0.49711-0.24307 0.82131-0.31868 0.32427-0.07561 0.68445-0.11338 1.0807-0.11338 0.28816 0 0.59254 0.02161 0.91315 0.06477 0.32061 0.04323 0.64302 0.10986 0.96729 0.19984 0.3242 0.09004 0.63936 0.2035 0.94561 0.34029 0.30618 0.13686 0.58895 0.29527 0.84831 0.47536v-3.23c-0.5259-0.20163-1.1005-0.35106-1.7237-0.44829-0.6232-0.09723-1.3383-0.14584-2.1452-0.14584-0.82138 0-1.5995 0.08825-2.3343 0.26468-0.73486 0.17643-1.3815 0.45188-1.9399 0.82635-0.55836 0.37454-0.99961 0.85163-1.3238 1.4314-0.3242 0.5797-0.48634 1.2728-0.48634 2.0795 0 1.0299 0.2972 1.9085 0.89161 2.6359 0.59434 0.72733 1.4967 1.3431 2.7071 1.8472 0.4755 0.19445 0.91861 0.38524 1.3293 0.57252 0.41066 0.18727 0.76552 0.38172 1.0644 0.58336 0.299 0.20163 0.53495 0.42129 0.70793 0.65897 0.17291 0.23761 0.25936 0.50768 0.25936 0.8102 0 0.22325-0.05407 0.43027-0.16214 0.62113-0.10807 0.19086-0.272 0.35645-0.49172 0.4969-0.21973 0.14045-0.49352 0.25025-0.82131 0.32945-0.32786 0.07927-0.71145 0.11884-1.151 0.11884-0.74929 0-1.4913-0.13141-2.2263-0.39429-0.73486-0.26282-1.4157-0.65711-2.0425-1.1829zm-5.8114-8.5171h4.4346v-2.8368h-12.36v2.8368h4.4129v12.631h3.513z" clip-rule="evenodd" fill="#fff" fill-rule="evenodd" style="stroke-width:.069053"/>
</svg>
