<svg  viewBox="0 0 50 50" xmlns="http://www.w3.org/2000/svg">
	<circle cx="25" cy="25" r="25" fill="#dd4814" style="stroke-width:.17639"/>
	<path d="m16.96 12.94c-2.921 1.9514-5.094 4.9347-5.9966 8.4291 1.0545 0.85922 1.7281 2.168 1.7281 3.6349s-0.67359 2.7757-1.7281 3.6349c0.90253 3.4945 3.0755 6.4778 5.9966 8.4292l2.4402-4.0877c-2.5067-1.7642-4.1459-4.6775-4.1459-7.9765s1.6392-6.2123 4.1459-7.9765zm-8.9721 8.7265a3.3375 3.3375 0 0 0-3.3211 3.3376 3.3375 3.3375 0 0 0 3.3376 3.3376 3.3375 3.3375 0 0 0 3.3376-3.3376 3.3375 3.3375 0 0 0-3.3376-3.3376 3.3375 3.3375 0 0 0-0.0165 0z" style="fill:#fff;stroke-width:.17639"/>
	<path d="m39.47 24.07c-0.22956-3.5054-1.7266-6.8789-4.3016-9.4078-1.2713 0.48359-2.7416 0.41254-4.012-0.32092-1.2704-0.73347-2.0671-1.9712-2.2839-3.314-3.4775-0.96561-7.1477-0.57528-10.298 0.97859l2.3199 4.1572c2.7811-1.2888 6.1237-1.2516 8.9807 0.39783 2.857 1.6495 4.5604 4.5258 4.8348 7.5786zm-3.0713-12.133a3.3375 3.3375 0 0 0-1.2299-4.545 3.3375 3.3375 0 0 0-4.5593 1.2217 3.3375 3.3375 0 0 0 1.2217 4.5593 3.3375 3.3375 0 0 0 4.5593-1.2217 3.3375 3.3375 0 0 0 8e-3 -0.0143z" style="fill:#fff;stroke-width:.17639"/>
	<path d="m18.57 38c3.1505 1.5539 6.8206 1.9442 10.298 0.97859 0.21685-1.3428 1.0135-2.5806 2.2839-3.314 1.2704-0.73347 2.7406-0.80452 4.012-0.32093 2.575-2.5289 4.072-5.9024 4.3016-9.4078l-4.7601-0.0694c-0.27448 3.053-1.9779 5.9292-4.8348 7.5786s-6.1996 1.6866-8.9807 0.39783zm12.043 3.4068a3.3375 3.3375 0 0 0 4.551 1.2073 3.3375 3.3375 0 0 0 1.2217-4.5593 3.3375 3.3375 0 0 0-4.5593-1.2217 3.3375 3.3375 0 0 0-1.2217 4.5593 3.3375 3.3375 0 0 0 8e-3 0.0143z" style="fill:#fff;stroke-width:.17639"/>
</svg>
