<svg viewBox="0 0 50 50" xmlns="http://www.w3.org/2000/svg">
	<mask x="0" y="0" width="256" height="256" mask-type="alpha" maskUnits="userSpaceOnUse">
		<path d="m181.53 254.25c4.032 1.571 8.63 1.47 12.7-0.488l52.706-25.361c5.538-2.665 9.06-8.271 9.06-14.42v-171.96c0-6.1492-3.522-11.754-9.06-14.419l-52.706-25.362c-5.341-2.5699-11.592-1.9405-16.279 1.4674-0.67 0.48682-1.308 1.0304-1.906 1.6294l-100.9 92.053-43.95-33.362c-4.0913-3.1056-9.8139-2.8512-13.614 0.6053l-14.096 12.822c-4.6479 4.228-4.6532 11.54-0.01151 15.775l38.115 34.773-38.115 34.773c-4.6417 4.235-4.6364 11.547 0.01151 15.775l14.096 12.822c3.7998 3.457 9.5224 3.711 13.614 0.606l43.95-33.362 100.9 92.053c1.596 1.597 3.47 2.8 5.485 3.585zm10.505-184.37-76.56 58.115 76.56 58.115z" clip-rule="evenodd" fill="#fff" fill-rule="evenodd"/>
	</mask>
	<path d="m43.138 9.7051-8.0385-3.8704c-0.93039-0.448-2.0424-0.25902-2.7727 0.4712l-26.315 23.993c-0.70782 0.6454-0.707 1.7597 0.00176 2.4041l2.1495 1.954c0.57945 0.52684 1.4521 0.56555 2.076 0.09235l31.69-24.041c1.0631-0.80652 2.5902-0.04825 2.5902 1.2862v-0.09333c0-0.93671-0.53659-1.7906-1.3806-2.197z" fill="#0065a9" style="stroke-width:.1524"/>
	<path transform="matrix(.1524 0 0 .1524 5.505 5.4931)" d="m246.94 228.36-52.747 25.397c-6.105 2.939-13.402 1.699-18.194-3.092l-172.68-157.44c-4.6445-4.2347-4.6392-11.547 0.01152-15.775l14.105-12.822c3.8022-3.4565 9.5283-3.711 13.622-0.6053l207.94 157.75c6.976 5.292 16.996 0.317 16.996-8.44v0.613c0 6.146-3.521 11.749-9.059 14.416z" fill="#007acc" style="filter:url(#filter0_d)"/>
	<path transform="matrix(.1524 0 0 .1524 5.505 5.4931)" d="m194.2 253.76c-6.107 2.937-13.404 1.696-18.196-3.096 5.904 5.904 16 1.722 16-6.628v-232.08c0-8.35-10.096-12.532-16-6.6274 4.792-4.792 12.089-6.0338 18.196-3.0967l52.738 25.362c5.542 2.665 9.066 8.2701 9.066 14.419v171.97c0 6.149-3.524 11.754-9.066 14.419z" fill="#1f9cf0" style="filter:url(#filter1_d)"/>
	<path d="m33.147 44.241c0.61447 0.23926 1.3152 0.22402 1.9353-0.07437l8.0323-3.8651c0.84413-0.40614 1.3809-1.2603 1.3809-2.1974v-26.207c0-0.93712-0.53674-1.7913-1.3807-2.1975l-8.0324-3.8651c-0.8138-0.39165-1.7664-0.29572-2.4809 0.22362-0.10195 0.07419-0.19918 0.15702-0.29047 0.24831l-15.377 14.029-6.6978-5.0842c-0.62349-0.47329-1.4956-0.4345-2.0747 0.092246l-2.1482 1.9541c-0.70833 0.64434-0.70914 1.7587-0.00175 2.4041l5.8086 5.2993-5.8086 5.2993c-0.70739 0.6454-0.70657 1.7597 0.00175 2.4041l2.1482 1.954c0.57908 0.52684 1.4512 0.56555 2.0747 0.09235l6.6978-5.0843 15.377 14.029c0.24323 0.24338 0.52897 0.42671 0.83605 0.54634zm1.6009-28.097-11.668 8.8566 11.668 8.8566z" clip-rule="evenodd" fill="url(#paint0_linear)" fill-rule="evenodd" style="fill:url(#paint0_linear);mix-blend-mode:overlay;opacity:.25;stroke-width:.1524"/>
	<defs>
		<filter id="filter0_d" x="-21.49" y="40.522" width="298.82" height="236.15" color-interpolation-filters="sRGB" filterUnits="userSpaceOnUse">
			<feFlood flood-opacity="0" result="BackgroundImageFix"/>
			<feColorMatrix in="SourceAlpha" values="0 0 0 0 0 0 0 0 0 0 0 0 0 0 0 0 0 0 127 0"/>
			<feOffset/>
			<feGaussianBlur stdDeviation="10.6667"/>
			<feColorMatrix values="0 0 0 0 0 0 0 0 0 0 0 0 0 0 0 0 0 0 0.25 0"/>
			<feBlend in2="BackgroundImageFix" mode="overlay" result="effect1_dropShadow"/>
			<feBlend in="SourceGraphic" in2="effect1_dropShadow" result="shape"/>
		</filter>
		<filter id="filter1_d" x="154.67" y="-20.674" width="122.67" height="297.35" color-interpolation-filters="sRGB" filterUnits="userSpaceOnUse">
			<feFlood flood-opacity="0" result="BackgroundImageFix"/>
			<feColorMatrix in="SourceAlpha" values="0 0 0 0 0 0 0 0 0 0 0 0 0 0 0 0 0 0 127 0"/>
			<feOffset/>
			<feGaussianBlur stdDeviation="10.6667"/>
			<feColorMatrix values="0 0 0 0 0 0 0 0 0 0 0 0 0 0 0 0 0 0 0.25 0"/>
			<feBlend in2="BackgroundImageFix" mode="overlay" result="effect1_dropShadow"/>
			<feBlend in="SourceGraphic" in2="effect1_dropShadow" result="shape"/>
		</filter>
		<linearGradient id="paint0_linear" x1="127.84" x2="127.84" y1=".65999" y2="255.34" gradientTransform="matrix(.1524 0 0 .1524 5.505 5.4931)" gradientUnits="userSpaceOnUse">
			<stop stop-color="#fff" offset="0"/>
			<stop stop-color="#fff" stop-opacity="0" offset="1"/>
		</linearGradient>
	</defs>
</svg>
