<svg viewBox="0 0 50 50" xmlns="http://www.w3.org/2000/svg">
	<rect x="5.647" y="9.1742" width="38.706" height="31.652" rx=".75598" style="stroke-width:.1512"/>
	<path d="m9.9169 12.466c-0.12927-0.12942-0.28546-0.19414-0.4684-0.19414s-0.33958 0.06532-0.47022 0.19595c-0.12882 0.12882-0.19413 0.28546-0.19413 0.4684s0.065316 0.33974 0.19413 0.4684l2.0324 2.0324-2.0306 2.0306c-0.13063 0.13063-0.19595 0.28727-0.19776 0.47022 0.00181 0.18295 0.067131 0.33974 0.19595 0.4684 0.13063 0.12882 0.28727 0.19414 0.4684 0.19595 0.18476 0 0.34155-0.06532 0.47218-0.19595l2.2581-2.2599c0.474-0.47218 0.474-0.94618 0-1.4203zm8.8517 5.0052c-0.13063-0.13063-0.28924-0.19595-0.474-0.19595v-9.07e-4h-4.3596v9.07e-4c-0.18476 0-0.3417 0.06532-0.47218 0.19595-0.13063 0.13063-0.19595 0.28742-0.19595 0.47218 0 0.18476 0.06532 0.34336 0.19595 0.474 0.13063 0.13063 0.28727 0.19595 0.47218 0.19595v-9.08e-4h4.3594v9.08e-4c0.18476 0 0.34321-0.06532 0.474-0.19595 0.13063-0.13063 0.19595-0.28924 0.19595-0.474 0-0.18476-0.06532-0.34155-0.19595-0.47218z" fill="#fff" style="stroke-width:.1512"/>
</svg>
